<svg width="143" height="110" fill="none" xmlns="http://www.w3.org/2000/svg"><path d="m120.57 10.046.013.007c15.882 23.695 23.724 50.334 20.823 81.03-12.017 8.863-23.564 14.266-35.046 17.861a104.32 104.32 0 0 1-6.655-10.901c3.706-1.468 7.303-3.138 10.725-5.192.479-.231.768-.685.797-1.181a1.478 1.478 0 0 0-.57-1.243c-.381-.315-.761-.611-1.129-.898l-.004-.003a50.95 50.95 0 0 1-1.074-.854c-.497-.46-1.155-.425-1.573-.222-22.878 10.66-47.827 10.662-70.982-.002-.412-.197-1.052-.233-1.544.2-.37.274-.739.561-1.094.839l-.006.004c-.377.294-.74.577-1.1.842l-.064.046-.055.056a1.54 1.54 0 0 0-.433 1.166c.023.397.22.899.731 1.171 3.476 1.985 7.02 3.72 10.747 5.204a87.743 87.743 0 0 1-6.672 10.921c-11.368-3.595-22.867-8.989-34.831-17.814-2.442-26.597 2.615-53.45 20.855-81.078A114.727 114.727 0 0 1 50.797 1.05c1.222 2.178 2.536 4.852 3.423 7.026l.298.73.779-.12a107.567 107.567 0 0 1 32.385 0l.77.118.303-.718c.888-2.114 2.203-4.846 3.368-7.034 9.994 1.782 19.584 4.824 28.447 8.995Zm-86.649 50.37c0 8.478 6.196 15.57 13.87 15.57 7.817 0 13.87-7.097 13.871-15.566.07-8.409-5.987-15.575-13.87-15.575-7.818 0-13.87 7.1-13.87 15.57Zm47.464 0c0 8.478 6.195 15.57 13.87 15.57 7.888 0 13.869-7.1 13.871-15.566.069-8.409-5.987-15.575-13.87-15.575-7.818 0-13.871 7.1-13.871 15.57Z" stroke="url(#a)" stroke-width="2"/><defs><linearGradient id="a" x1="30.919" y1="6.197" x2="95.664" y2="109.874" gradientUnits="userSpaceOnUse"><stop stop-color="#0D469E"/><stop offset="1" stop-color="#0D469E" stop-opacity=".27"/></linearGradient></defs></svg>