<svg width="143" height="131" fill="none" xmlns="http://www.w3.org/2000/svg"><path d="m44.31 52.782-.726.688L29.48 66.84l-.726.689.688.725 53.282 56.207.688.726.725-.688 22.282-21.122 3.526.623-26.628 25.242-54.48-57.471c-.826-.871-1.427-2.51-1.384-4.286.044-1.776.727-3.376 1.59-4.195L48.75 44.608l14.052 3.221L94.607 81.38a9.67 9.67 0 0 0-1.285.862M44.31 52.782l49.634 30.242M44.31 52.782l.688.725 5.177 5.462m-5.865-6.187 5.865 6.187m43.147 23.273.622.782m-.622-.782.622.782m-.622-.782c-.354.28-.683.58-.99.894m1.612-.112c-.33.262-.637.543-.923.838l-.689-.726m0 0a10.76 10.76 0 0 0-.666.751l.695.733-23.213-24.487m23.184 23.003L69.992 59.57m0 0c.026.055.05.11.074.166l-.918.397m.845-.563-.119-.125-.726.688m.845-.563a11.001 11.001 0 0 0-2.04-3.036c-4.179-4.407-11.213-4.612-15.609-.445a10.85 10.85 0 0 0-2.169 2.88m18.973 1.164a10.001 10.001 0 0 0-1.921-2.91c-3.801-4.01-10.203-4.193-14.195-.409a9.856 9.856 0 0 0-2.124 2.928l-.733-.773m32.43 34.21-.688-.726-17.344-18.296a10.879 10.879 0 0 0 4.85-4.336l19.731 20.814c-.101 2.167.386 4.407 1.614 6.388l-8.163-3.844Zm0 0-.726.688-9.412 8.922m10.138-9.61-10.138 9.61m0 0 11.21 11.826 13.607-12.898c-2.86-.762-5.154-2.495-6.516-4.694l-18.3 5.766Zm-6.376-84.344c-3.259-3.465-6.692-6.978-9.979-9.915-3.3-2.949-6.422-5.24-8.725-6.296-1.146-.526-2-.696-2.446-.695-.279 0-.365.026-.395.037-.016.006-.064.024-.209.16-.145.138-.165.185-.172.2v.001c-.012.028-.042.112-.057.39l-.999-.055.999.055c-.025.444.099 1.307.563 2.481.931 2.357 3.052 5.595 5.822 9.05 4.143 5.166 9.394 10.562 13.963 15.256.645.662 1.275 1.31 1.887 1.942l6.097-5.78-1.564-1.689a799.39 799.39 0 0 0-4.785-5.142Zm17.033 26.727.368.388-.118.52-2.299 10.172 2.882 3.04 3.336-14.761-11.491-12.122-2.516 2.385 9.838 10.378Zm16.468 49.41 29.894 5.281 1.212-7.02-29.9-5.283c-1.459-.258-2.213.063-2.817.543-.624.496-1.127 1.353-1.298 2.343-.17.99.015 1.97.438 2.654.41.663 1.014 1.224 2.471 1.481Zm-3.31-12.889c-.333.13-.654.276-.963.438l.225-1.216.737.778Zm42.937 22.645 2.136-12.37-3.057.83-1.677 9.71 2.598 1.83ZM12.411 48.569l23.978-22.73-6.1-10.787-28.324 26.85 10.446 6.667Zm50.002 18.143c1.446-1.37 1.505-3.58.122-5.04-1.383-1.458-3.594-1.518-5.04-.147-1.446 1.37-1.504 3.58-.121 5.04 1.383 1.459 3.593 1.518 5.039.147ZM26.6 55.287l15.738-14.92-4.916-5.186L21.683 50.1l4.917 5.186Zm12.723 12.54 27.992 29.53 4.72-4.475-20.08-21.181-7.912-8.347-4.72 4.474ZM31.903 93.6c12 8.959 22.344 20.082 32.265 34.529l1.502-6.647-27.45-28.959-6.316 1.076Z" stroke="url(#a)" stroke-width="2"/><defs><linearGradient id="a" x1="25.888" y1="10.803" x2="90.406" y2="111.976" gradientUnits="userSpaceOnUse"><stop stop-color="#08224B"/><stop offset="1" stop-color="#08224B" stop-opacity="0"/></linearGradient></defs></svg>