<svg width="26" height="26" fill="none" xmlns="http://www.w3.org/2000/svg"><path d="M24.172 12.035h-3.103a8.127 8.127 0 0 0-7.104-7.104V1.828a.204.204 0 0 0-.203-.203h-1.524a.204.204 0 0 0-.203.203v3.103a8.128 8.128 0 0 0-7.104 7.104H1.828a.204.204 0 0 0-.203.203v1.524c0 .111.091.203.203.203h3.103a8.127 8.127 0 0 0 7.104 7.104v3.103c0 .112.092.203.203.203h1.524a.204.204 0 0 0 .203-.203v-3.103a8.127 8.127 0 0 0 7.104-7.104h3.103a.204.204 0 0 0 .203-.203v-1.524a.204.204 0 0 0-.203-.203ZM13 19.195A6.194 6.194 0 0 1 6.805 13 6.194 6.194 0 0 1 13 6.805 6.194 6.194 0 0 1 19.195 13 6.194 6.194 0 0 1 13 19.195Z" fill="#fff"/><path d="M13 9.953a3.01 3.01 0 0 0-2.153.894A3.02 3.02 0 0 0 9.953 13c0 .815.318 1.577.894 2.153.576.574 1.34.894 2.153.894s1.577-.318 2.153-.894c.574-.576.894-1.34.894-2.153s-.318-1.577-.894-2.153A3.01 3.01 0 0 0 13 9.953Z" fill="#fff"/></svg>