<svg width="127" height="127" fill="none" xmlns="http://www.w3.org/2000/svg"><path d="m100.644 108.776-17.411-64.98-.075-.278-.279-.075-64.855-17.386L42.351 1.732A4.185 4.185 0 0 1 46.14.717l63.051 16.86.577 2.155 16.298 60.825a4.42 4.42 0 0 1-1.032 3.77l-1.689 1.746-.002.002c-8.162 8.214-15.35 15.446-22.699 22.701ZM48.522 78.529l-.075-.279-.28-.075L1.48 65.704c3.524-3.513 7.027-7.02 10.53-10.525 3.705-3.71 7.41-7.417 11.139-11.132a4.185 4.185 0 0 1 3.789-1.016l44.686 12 12.112 44.802a4.422 4.422 0 0 1-1.028 3.766 5843.18 5843.18 0 0 0-11.134 11.126v.001a7017.46 7017.46 0 0 1-10.532 10.526L48.52 78.529Zm-11.46 11.795 8.38 31.281-31.224-8.345L37.06 90.324Z" stroke="url(#a)"/><defs><linearGradient id="a" x1="43.99" y1=".27" x2="76.601" y2="121.977" gradientUnits="userSpaceOnUse"><stop stop-color="#0D47A1"/><stop offset="1" stop-color="#0D47A1" stop-opacity="0"/></linearGradient></defs></svg>