<svg width="28" height="20" fill="none" xmlns="http://www.w3.org/2000/svg"><path d="M17.203 2.633c.032 0 .058.026.058.058v3.263a1.634 1.634 0 0 0 1.625 1.634c.32 0 .687-.094.961-.28l5.528-3.146v11.649l-5.558-3.05a1.618 1.618 0 0 0-1.682-.11c-.536.28-.873.838-.874 1.446l-.004 3.212a.058.058 0 0 1-.058.057H2.683a.057.057 0 0 1-.058-.056l.004-14.62c0-.031.026-.057.058-.057h14.516Zm8.943-.817c-.173 0-.515.051-.71.247l-6.55 3.891V2.691c0-.933-.754-1.691-1.684-1.691H2.687c-.931 0-1.683.757-1.683 1.69L1 17.31c0 .932.752 1.69 1.683 1.69H17.2c.93 0 1.683-.758 1.683-1.691l.004-3.21 6.678 3.914c.195.196.412.17.586.17.18 0 .314-.055.33-.062a.845.845 0 0 0 .52-.783V2.663a.842.842 0 0 0-.854-.847Z" fill="#fff" stroke="#fff"/></svg>