<svg width="27" height="26" fill="none" xmlns="http://www.w3.org/2000/svg"><g clip-path="url(#a)"><path d="M25.28 7.394V20.39a1 1 0 0 1-.455.785l-.425.255a4948.82 4948.82 0 0 1-5.884 3.401V10.777L6.346 3.742c2.107-1.21 4.205-2.43 6.313-3.634a1.004 1.004 0 0 1 .907 0l11.711 6.764v.522h.002Zm-9.47 4.942c-2.778-1.606-5.556-3.21-8.335-4.814a1.018 1.018 0 0 0-.907 0C4.69 8.606 2.812 9.688.936 10.776l8.789 5.074V26c1.876-1.082 3.748-2.173 5.63-3.244a1.004 1.004 0 0 0 .454-.785v-9.635ZM.937 20.926l6.08 3.512v-7.029l-6.08 3.518Z" fill="#fff"/></g><defs><clipPath id="a"><path fill="#fff" transform="translate(.107)" d="M0 0h26v26H0z"/></clipPath></defs></svg>