<svg width="10" height="10" fill="none" xmlns="http://www.w3.org/2000/svg"><g clip-path="url(#a)"><path d="M4.505.874c.136-.732 1.186-.732 1.322 0a.672.672 0 0 0 1.123.365c.54-.512 1.39.105 1.07.777a.672.672 0 0 0 .694.956c.738-.097 1.063.901.408 1.257a.672.672 0 0 0 0 1.181c.655.356.33 1.354-.408 1.257a.672.672 0 0 0-.695.956c.321.672-.528 1.29-1.069.776a.672.672 0 0 0-1.123.365c-.136.733-1.186.733-1.322 0A.672.672 0 0 0 3.382 8.4c-.54.513-1.39-.104-1.07-.776a.672.672 0 0 0-.694-.956C.88 6.764.555 5.766 1.21 5.41a.672.672 0 0 0 0-1.181c-.655-.356-.33-1.354.408-1.257a.672.672 0 0 0 .694-.956c-.32-.672.53-1.29 1.07-.777A.672.672 0 0 0 4.505.874Z" fill="#59A6FF"/><path d="m3.662 4.82 1.202 1.2 1.802-2.102" stroke="#fff" stroke-width=".601" stroke-linecap="round" stroke-linejoin="round"/></g><defs><clipPath id="a"><path fill="#fff" transform="translate(.654 .314)" d="M0 0h9.012v9.012H0z"/></clipPath></defs></svg>