<svg width="474" height="474" fill="none" xmlns="http://www.w3.org/2000/svg"><rect x="1.414" y="2.449" width="382.975" height="383.063" rx="18" transform="rotate(14.996 51.515 383.104) skewX(-.007)" stroke="url(#a)" stroke-width="4"/><g filter="url(#b)"><path d="M322.055 192.372c-10.862-9.508-23.212-17.605-36.631-23.967a.829.829 0 0 0-.38-.025.886.886 0 0 0-.359.146c-2.57 2.822-5.689 6.56-7.884 9.483a148.62 148.62 0 0 0-45.154-12.103c-.413-3.727-1.271-8.425-2.181-12.18-.041-.224-.297-.399-.579-.474a160.403 160.403 0 0 0-43.705 2.435c-.094-.025-.214.049-.335.123-36.409 33.539-53.993 70.953-60.935 110.795a.57.57 0 0 0 .149.572c13.423 17.64 27.57 29.942 42.247 39.514.256.175.565.151.712-.022 5.225-4.451 10.154-9.3 14.692-14.573.294-.346.213-.794-.137-.994-4.777-3.621-9.166-7.563-13.354-11.877-.323-.299-.163-.895.199-1.117 1.247-.517 2.521-1.133 3.769-1.649a.576.576 0 0 1 .685.077c28.186 24.256 63.086 33.61 99.244 26.6a.575.575 0 0 1 .632.275c.796 1.171 1.618 2.242 2.413 3.413.297.399.137.994-.386 1.067-5.716 1.765-11.555 2.86-17.502 3.607-.403-.002-.63.469-.615.792a158.735 158.735 0 0 0 5.439 19.968c.256.175.511.35.82.327 17.589-.924 35.991-4.503 56.433-13.067a.568.568 0 0 0 .415-.42c16.184-43.854 15.627-85.811 2.612-126.427-.068-.124-.135-.249-.324-.299Zm-126.597 67.983c-9.69-2.597-15.254-14.195-12.143-25.807 3.111-11.613 13.539-18.925 23.416-16.277 9.972 2.672 15.321 14.319 12.143 25.807-3.111 11.613-13.539 18.924-23.416 16.277Zm65.567 17.573c-9.689-2.597-15.254-14.194-12.143-25.807 3.111-11.613 13.539-18.925 23.416-16.277 9.972 2.672 15.321 14.319 12.143 25.807-3.111 11.613-13.445 18.95-23.416 16.277Z" fill="#2C70DA"/></g><defs><linearGradient id="a" x1="83.67" y1="21.806" x2="331.813" y2="327.396" gradientUnits="userSpaceOnUse"><stop stop-color="#2C70DA"/><stop offset=".492" stop-color="#2C70DA" stop-opacity=".25"/><stop offset="1" stop-color="#2C70DA"/></linearGradient><filter id="b" x="77.891" y="105.723" width="300.146" height="271.863" filterUnits="userSpaceOnUse" color-interpolation-filters="sRGB"><feFlood flood-opacity="0" result="BackgroundImageFix"/><feColorMatrix in="SourceAlpha" values="0 0 0 0 0 0 0 0 0 0 0 0 0 0 0 0 0 0 127 0" result="hardAlpha"/><feOffset dy="-1"/><feGaussianBlur stdDeviation="23"/><feComposite in2="hardAlpha" operator="out"/><feColorMatrix values="0 0 0 0 0.172549 0 0 0 0 0.439216 0 0 0 0 0.854902 0 0 0 0.5 0"/><feBlend in2="BackgroundImageFix" result="effect1_dropShadow_147_67"/><feBlend in="SourceGraphic" in2="effect1_dropShadow_147_67" result="shape"/></filter></defs></svg>