<svg xmlns="http://www.w3.org/2000/svg" viewBox="0 0 800 800" style="enable-background:new 0 0 800 800" xml:space="preserve"><path d="m0 752 .2-420.4L800 48l-.2 420.4L0 752z" style="fill:#000105"/><path d="M57.4 374v295.1l108-38.4v-295zm685.4-242.9-106.5 37.8V464l106.5-37.8zM368.3 263.7l-106.7 37.8v105l106.7 135.3zm249.2-88.3-106.8 37.9v105l106.8 135.3zM184.1 513.7l68.2 86.2 107.3-38.1-175.5-221.3zM386.9 257v110.4L429 420l-42.1 15.1v77.7l90.1-32 24.1 30.6 108.1-38.2-182.4-230.4z" style="fill:#fff243"/></svg>