<svg version="1.1" id="Layer_2_1_" xmlns="http://www.w3.org/2000/svg" x="0" y="0" height="800" width="800" viewBox="0 0 522 522" style="enable-background:new 0 0 522 522" xml:space="preserve"><style>.st0{fill:none}</style><path class="st0" d="m226.8 127.7 4.6-28.8h-7l-1.7 11.1h-9.2l1.7-11.1h-7.5l-4.5 28.8h7.5l1.9-11.4h9.1l-1.9 11.4zm17.2-6.3h-8l3.6-22.5h-6.9l-4.6 28.8H243z"/><path class="st0" d="M260.9 98.9h-18.6l-.9 6.4h6.2l-2.7 16.1-.9 6.3h7.5l3.5-22.4h5zm19.9 0-9.7 17.5-4.2-17.5h-5l-1.2 7.5 5.7 21.3h5.7l16.8-28.8zm4.8 26.8c-.2 1.5-1.7 2.8-3.2 2.8s-2.6-1.3-2.3-2.8c.2-1.5 1.7-2.8 3.2-2.8s2.5 1.2 2.3 2.8zm13.9-5c-.6 3.8-2.4 7.8-7 7.8-4.5 0-5.1-3.9-4.5-7.8.6-3.8 2.4-7.8 7-7.8 4.5 0 5 3.9 4.5 7.8zm-7.3 0c-.1.9-.6 4 .9 4 1.4 0 2-3.1 2.1-4s.6-4-.9-4c-1.4-.1-1.9 3.2-2.1 4zm14.4-7.5-.3 1.8h.1c1-1.3 2.1-2.2 3.8-2.3l-.6 4c-.2 0-.4-.1-.6-.1-2.8 0-3.1 1.8-3.4 4l-1.2 7.5h-4.1l2.3-15 4 .1zm6.1 17c-.1.9 0 2.1 1.2 2.1 1.8 0 2-2.8 2.2-4.1l.3-1.9h-.1c-.4.5-.8 1.1-1.2 1.5-.5.4-1.1.7-1.8.7-1.5 0-2.3-1.2-2.8-2.5-.5-1.5-.4-3.4-.2-5.1.4-2.6 1.7-8 5.4-8 1.4 0 2.2.9 2.5 2.1h.1l.3-1.8h4.1l-2.6 16.3c-.7 4.4-2.9 6.2-6.6 6.2-3.5 0-4.9-2-4.6-5.5h3.8zm4.8-9.6c.1-.8.6-4-.8-4s-2 3.1-2.1 4-.6 4 .9 4c1.3 0 1.9-3.2 2-4z"/><g id="_x30_nG9y0.tif"><linearGradient id="SVGID_1_" gradientUnits="userSpaceOnUse" x1="-142.882" y1="868.523" x2="188.454" y2="868.523" gradientTransform="matrix(1.5742 -.04564 -.04564 -1.5742 262.357 1631.64)"><stop offset="0" style="stop-color:#00a8ec"/><stop offset="1" style="stop-color:#0f75bd"/></linearGradient><path d="M376.3 348.3c-6.3-3.1-12.2-6-18.1-8.9-11.6-5.8-23.3-11.4-34.9-17.3-3.2-1.6-3.2-1.6-2.2-6.2 3.4-14 9.6-26.4 18.8-37.3 10.8-12.7 23.8-22.6 39.2-28.8 9.4-3.9 19.4-6.6 29.7-6.9 8.3-.2 16.7-.6 25 .1 10.7 1 21.1 4 31.1 8.5 11.6 5.3 21.9 12.5 30.6 21.8 7.4 7.8 13.1 16.7 17.3 26.4 4 9 6.8 18.3 7.7 28.1.7 7.5 1.8 15 1.4 22.3-1.1 20.6-7.2 39.8-19.9 56.3-12.9 16.8-29.6 27.9-50 34.1-12.9 3.8-26.2 4.9-39.5 4-8.5-.5-17-3-25.2-5.7-10-3.3-19.8-7.6-29.3-12-11.9-5.6-23.6-11.9-35.6-17.9-14.8-7.6-29.6-14.9-44.3-22.5-20.2-10.2-40.5-20.6-60.7-31.1-25.2-12.8-50.5-25.8-75.9-38.6-7.9-3.9-16.2-7.7-24.6-10.7-10.3-3.6-20.9-3.8-31.1.7-14.4 6.5-22.2 17.7-23.1 33.5-.8 11 2 20.8 9.1 29.2 7.1 8.4 16.5 12.7 27.5 13.4 8.9.4 17.7-.7 25.7-4.8 10.8-5.5 16.3-14.7 18.7-26.2.7-3.5.9-7.1 1.3-10.7.3-2.1 1-2.4 2.9-1.5 16.8 8.4 33.8 16.9 50.8 25.2 2.4 1.2 2.9 2.8 2.4 5.2-3.7 14.6-10.2 28-20.2 39.5-10.8 12.4-23.8 21.9-38.8 27.9-16.1 6.4-32.9 8.3-50.2 6.9-12.1-1.1-23.6-3.7-34.5-8.7-11.9-5.4-22.4-12.7-31.3-22.4C14.4 400.3 6.9 385 3 367.9c-1.1-4.6-1.4-9.2-2-14-.4-2.5-1.1-5.1-1-7.6.3-16.8 2.4-33.2 9.7-48.6 10.7-22 26.9-38 49.8-47.5 10.8-4.5 22.2-6.7 33.7-8 16.5-1.7 32 2.1 47.2 7.7 18.5 6.8 35.8 16.3 53.5 25.1 11.9 6.1 24.1 12 36.1 18.1 3.7 1.8 7.6 3.4 11.3 5.3 1.8.9 2.5-.2 3.1-1.5 3.4-6.5 7-12.7 10.3-19.2 5.9-11.3 11.9-22.7 17.8-34 6.8-13.2 13.9-26.1 20.3-39.2 4-8.3 6.7-16.9 6.8-26.2.2-16.7-10.8-31.9-26.9-36.8-11.5-3.4-22.7-2.7-33.2 3-10.8 5.8-17.4 14.9-19.4 27-1.9 11-.3 21.6 5.1 31.6 4.4 7.9 11.2 12.9 19.9 15.2 5 1.3 10.1 1.9 15.1 2.9 3.8.7 4 1 2.3 4.2-8 15.9-16 31.7-24 47.5-2.2 4.6-2.5 4.7-7.4 3.4-18.3-4.9-34.4-13.9-47.1-27.8-10.4-11.3-18.1-24.4-22.5-39.2-5.2-17.2-5.8-34.7-2.3-52.2 5.8-27.9 20.2-49.9 45-64.7 11.6-6.9 24.2-10.9 37.4-13.4 6.2-1.1 12.3-1.9 18.6-1.8 8 .4 16 1.3 23.9 2.6 13.5 2.5 25.9 7.9 37.1 15.8 16.3 11.4 27.7 26.4 34.6 45 5.1 13.6 7 27.5 6.5 41.7-.4 9.7-2.9 19.2-6.2 28.5-6.5 18.3-15.7 35.5-24.5 52.8-9 17.8-18.2 35.6-27.4 53.2-1.3 2.6-2.7 5.4-4.2 7.8-1.2 2.1-.7 3 1.4 4.1 13.2 6.7 26.2 13.5 39.4 20.2 16.7 8.6 33.4 17.4 50.2 25.8 9.1 4.6 18.5 8.1 28.7 8.1 17.2.1 33.4-9.9 38.4-27.9 3.4-12.5 2-24.6-5.7-35.4-6.7-9.5-16.1-14.9-27.9-15.8-8.6-.7-17.1.2-25.3 3.4-9.3 3.7-15.5 10.5-18.7 19.8-1.7 5.2-2.4 10.6-3.5 15.9-.1 2-.3 3.6-.7 5.5z" style="fill:url(#SVGID_1_)"/></g></svg>