<svg width="70" height="70" fill="none" xmlns="http://www.w3.org/2000/svg"><path fill-rule="evenodd" clip-rule="evenodd" d="m17.937 39.375 11.23 12.152-10.428 2.431-5.614-4.86 4.812-9.723Zm29.637-23.333L52.5 18.75l-1.642 8.958-11.495-7.5 8.21-4.166Zm-30.621 0c.547 0 .986.023 1.64.546.912.73 4.273 3.11 4.273 3.11l.61 1.083c1.11.056 1.137.156 2.539 1.186L56.875 42.9c-.238.515-3.907 11.058-3.907 11.058h-5.664l-34.18-36.093s.558-.209 1.095-.547c.84-.53 1.9-1.276 2.734-1.276Zm4.193-7.292H8.75c-.77.385-1.459.831-1.459 2.37v13.125l1.441 4.007-1.44 2.008v1.641l1.458 1.094V35l-1.46 1.458v5.47l1.459.91v6.016c-1.523 1.084-1.459 2.37-1.459 3.849v6.906c3.411.852 2.846 1.641 6.745 1.641h5.651c.528-.033.94-.144 1.459-.194 1.45-.14 2.37-1.264 2.37-1.264l3.828 1.458 1.458-1.458s1.912 2.366 2.37 2.916l1.276-1.458 4.01 1.458s1.488-1.427 3.099-1.458h7.839c.12-.115 1.458-1.458 1.458-1.458.614.367.071 1.458 5.65 1.458 1.54 0 2.918-.365 2.918-.365-.237-.787-.263-.627-.73-1.093 0 0 3.646 0 6.016 1.458V38.656l-2.917.901c.057-.462 1.405-1.076 1.459-2.005.068-1.171-.064-5.23-.235-6.087-.088-.438-.923-1.72-1.224-2.116.358-.964 1.459-1.64 1.459-1.64v-1.094l1.458-.85v-6.158L61.25 13.49l1.458-1.58v-1.744l-1.54-1.334-5.002-.827-1.155.827-.578-.963s-7.56-.574-8.93-.574c-1.755 0-1.5.13-2.093 2.107l-2.517.257-.242-.909h-2.552l.42-.462c.446-.422.29-.253.638-.996h-8.776c-.137.25-.639.82-1.034 1.458 0 0-.77-.007-1.347.378-.578.385-.575 1.08-1.345 1.08h-3.27c-1.926 0-2.24-1.458-2.24-1.458Z" fill="#F44336"/></svg>