<svg xmlns="http://www.w3.org/2000/svg" viewBox="0 0 800 800" style="enable-background:new 0 0 800 800" xml:space="preserve"><path d="M380.4 168.1c-35.5 0-68.7 2.2-102 4.4-88.7 6.7-175.2 22.2-261.6 44.3l75.4 86.5c57.7-13.3 115.3-22.2 173-26.6-26.6 106.4-86.5 199.6-173 263.9v122c146.3-82 248.3-226.2 279.4-392.5 6.6-33.2 8.8-68.7 8.8-102zM784 216.9c-86.5-22.2-173-37.7-261.6-44.3-33.3-2.2-68.7-4.4-102-4.4 0 35.5 2.2 68.7 8.9 102 31 166.3 133 308.2 279.4 392.5v-122c-86.5-64.3-146.3-157.4-173-263.9 57.7 4.4 115.3 15.5 173 26.6l75.3-86.5zM353.8 664.8 447 558.4V445.3h-93.2z" style="fill:#ff5900"/></svg>