<svg xmlns="http://www.w3.org/2000/svg" viewBox="0 0 800 800" style="enable-background:new 0 0 800 800" xml:space="preserve"><path d="M401.09 255.08 6 50.94l62.01 345.44c5 27.88 20.56 52.17 43.79 68.38l92.75 64.7 6.46 83.36L400.15 749l189.27-135.37 7.52-85 94.68-67.83c22.69-16.26 37.87-40.35 42.75-67.84L795 50.9 401.1 255.07l-.01.01zm318.72 135.31c-4.2 23.67-17.27 44.41-36.8 58.4l-100.2 71.78-7.52 85-175.12 125.24L225.2 604.84l-6.47-83.5-98.48-68.7c-20-13.96-33.39-34.86-37.7-58.87L25.84 77.83 401.1 271.72 775.22 77.8l-55.41 312.59z" style="fill:#fc0000"/><path d="M401.1 271.72 25.84 77.83l56.71 315.94c4.31 24.01 17.7 44.91 37.7 58.87l98.48 68.7 6.47 83.5 174.97 125.97 175.12-125.24 7.52-85 100.2-71.78c19.54-14 32.61-34.74 36.8-58.4L775.22 77.8 401.1 271.72z"/><path d="M201.66 330.85 190.08 200.2 70.22 137.96 93.5 266.37zm13.23 146.22-9.41-104.4-104.14-61.26 12.94 73.52a58.55 58.55 0 0 0 23.8 37.63l76.81 54.51m384.65-146.22 11.59-130.65 119.85-62.24-23.28 128.41zm-13.22 146.22 9.41-104.4 104.14-61.26-12.94 73.52a58.55 58.55 0 0 1-23.8 37.63l-76.82 54.52M225 218.07l123.33 63.78 7 87.89 45.27-32.67 45.45 32.67 7-87.89 123.33-63.78-32.67 369.44-126.44 91 .09-91.75a82.798 82.798 0 0 1 34.91-67.47l51.95-36.82 5.44-58.33-108.54 64.84-109.42-64.84 5.44 58.33 52.19 36.67a82.803 82.803 0 0 1 35.19 68.12l-.42 91.24-126.44-91-32.67-369.44.01.01z" style="fill:#fff"/></svg>