<svg version="1.1" id="Layer_1" xmlns="http://www.w3.org/2000/svg" x="0" y="0" height="800" width="800" viewBox="0 0 113.4 113.4" style="enable-background:new 0 0 113.4 113.4" xml:space="preserve"><style>.st0{fill-rule:evenodd;clip-rule:evenodd;fill:#fff}</style><path class="st0" d="M24.6 18.7c-1.3-1.5-2.2-3.2-2.9-5-1-3-1.1-5.9 0-8.9.9-2.5 3.2-3.7 5.8-2.9 4.3 1.4 8.5 2.6 12.9 3.4 6.2 1.2 12.3.8 18.3-1.1C62.8 3 67 2.4 71.2 2.7c2.8.2 5.5 1 8.1 1.8 2.7.8 5.3 1.5 7.9 2.2.6.2 1.2.3 1.8.2 6-.2 11.4 1.7 16.5 4.5 1.8 1 3.6 2.2 5.2 3.5 2.3 1.9 2.9 4.4 2.1 7.2 0 .2-.1.4 0 .5.7 2.1.4 4.1-.1 6.2-.6 2.7-1.6 5.3-3.4 7.6-.2.3-.3.7-.4 1-1 2.8-2.6 5.2-5.4 6.5-.6.3-1.2.4-1.9.7 1.9 2.4 3 5.1 3.7 8.1.1.3.2.5.3.7 4.7 8 0 18.3-9.2 19.9-3.9.7-7.5-.2-10.7-2.7-3.4-2.7-7.4-4.1-11.7-3.7-6.8.5-13.6 5.1-14.7 13.2-.9 6.9 1.3 12.6 6.9 16.7 2.3 1.7 4.9 2.5 7.8 2.7 2 .1 4 0 6.1-.7-.2.8-.3 1.4-.5 2-1.3 3.6-3.9 6.2-7.3 7.9-3.3 1.7-6.9 2.4-10.6 2.6-4.9.3-9.8-.3-14.6-1.4-.2 0-.5 0-.6.2-1.1 1.5-2.6 1.9-4.3 1.7-4.6-.6-9.1-1.8-13.3-3.9-5.4-2.7-9.6-6.7-12.7-11.9-.3-.4-.5-.7-1.1-.6-1.1.2-2.2-.3-3-1.1C9 91.5 6.8 88 5.2 84.2 2.8 78.5 2 72.5 2.3 66.3c0-.2.1-.5.1-.7.1-.9.2-1.8-.7-2.6-1-1-1.2-2.5-1.3-3.8-.7-6.1.6-12 2.9-17.6 4.2-10 11.1-17.4 20.8-22.3.2-.1.4-.2.5-.3-.1-.1 0-.2 0-.3zm84.7 2c.2-1.4-.1-2.1-1.1-3-1.8-1.6-3.9-2.8-6.1-3.8-4.1-2-8.4-3.3-13-3.2-.8 0-1.7-.1-2.5-.2-3.2-.5-6.1-1.6-9.2-2.6-2.3-.8-4.6-1.4-7.1-1.5-3.4-.1-6.8.4-10 1.4-3.2 1-6.5 1.7-9.8 2-4.2.3-8.4-.1-12.5-1.1-3.8-.9-7.6-2-11.4-3.1-.9-.2-1.1-.2-1.4.7-.2.9-.4 1.8-.4 2.7 0 6.6 5.9 11.7 12.4 10.8.4-.1.8-.1 1.3-.2-.1.2-.1.2-.2.3-.2.1-.3.3-.5.3-2.2 1.1-4.4 1.3-6.7.7-.7-.2-1.4-.2-2.2.1-10.8 4.5-18.4 12-22.7 23-1.6 4.2-2.5 8.5-2.4 13 0 1.2.3 2.3.5 3.6.9-2 1.6-3.8 2.4-5.5.9-1.7 2.7-4 3.6-4.6-.3.6-.6 1.2-.8 1.7C6 60.3 4.9 68.7 6.9 77.4c1.2 4.9 3.2 9.4 6.7 13.1.4.4.8.7 1.2 1.1-1-3.8-1.2-7.5-.3-11.3.9 4.7 2.3 9.3 4.9 13.5 2.5 4.2 5.9 7.5 10.2 9.9 3.8 2.1 11.6 4.5 13.7 4.1-3.1-1.7-5.3-4.2-6.6-7.5 1.5 1.4 3.2 2.5 5.1 3.4 5.6 2.7 11.5 3.8 17.7 3.7 3.3 0 6.5-.4 9.5-1.7 1.4-.6 2.7-1.3 3.7-2.5-8.5-1.5-14.2-6.2-16.7-14.3-2.5-8.2-.1-15.3 6.1-21.3-6.9.8-12.9-1.3-18-5.8-5.9-5.1-7.7-12.6-7.2-17.2l.3 2.4c.9 4.9 2.9 9.2 6.6 12.6 4.6 4.2 10 6 16.1 6 2.5 0 5-.3 7.3-1.2 7.5-2.9 14.4-1.9 20.7 3.1 2.1 1.6 4.5 2.3 7.1 2 7-.9 10.6-8.7 6.9-14.6-.3-.4-.4-.9-.5-1.4-.5-2.1-1.1-4-2.3-5.8-.1-.2-.3-.4-.6-.7-.1.3-.2.4-.2.6l-.9 5.4c-.2 1 .1 1.4 1.1 1.6.2 0 .4.1.8.2-1.7.7-2.3.3-2.5-1.2v-.1c-.3-2.2-.9-4.3-2.6-5.9-.2-.2-.5-.3-.7-.4-.1.2-.3.5-.3.7-.2 1-.2 2-.5 2.9-.4 1.5-.8 3-1.2 4.6-.8-.2-1.5-.4-2.2-.5-2.7-.6-5.4-1.3-8.2-1.8-1.9-.4-3.9-.6-5.8-1.1-1.8-.5-3.3-1.5-3.6-3.6V48c1.5 3.1 4.3 3.8 7.3 4.1-.5-.5-1.1-.8-1.6-1.3-1.1-.8-2-1.9-2.1-3.4-.1-1.9.1-3.8 1-5.6 1.4-3 3.6-5.1 6.3-6.9.2-.1.3-.3.5-.4 0-.1-.1-.1-.1-.2-4.2.5-7.6 2.3-10.1 5.7.2-.6.4-1.1.7-1.6 2.4-3.9 6-5.6 10.5-5.8 3-.2 5.9.3 8.8.8.7.1.9.4.9 1-.1 2-.1 4-.2 5.9 0 .2 0 .5.2.7.1.1.4 0 .6-.1 1.4-.6 2.6-1.4 3.4-2.7.8-1.2 1.5-2.5 2.3-3.9.7.1 1.5.1 2.3.2v.1c-.5.1-1 .1-1.5.2v4.9c0 .2 0 .4.1.7.2 0 .5-.1.7-.2 1.6-.8 2.6-2.2 3.2-3.8.4-1.1.8-2.2 1.6-3.2 1.7-2.3 2.4-5 2.7-7.8.2-1.7-.5-2.9-1.9-3.9-.6-.4-1.2-.8-1.7-1.2-.8-.8-1.6-1.6-2.4-2.5-.1-.1-.1-.3-.1-.5.2 0 .4 0 .5.1.3.1.6.3.8.5 1.7 1.1 3.2 1.9 4.9 2.8z"/><path d="M109.3 20.7c-1.6-.9-3.2-1.7-4.7-2.6-.3-.2-.5-.4-.8-.5-.1-.1-.3 0-.5-.1 0 .2 0 .4.1.5.8.8 1.6 1.7 2.4 2.5.5.5 1.1.8 1.7 1.2 1.4.9 2.1 2.2 1.9 3.9-.3 2.8-.9 5.5-2.7 7.8-.8 1-1.2 2.1-1.6 3.2-.6 1.6-1.6 3-3.2 3.8-.2.1-.5.1-.7.2 0-.2-.1-.4-.1-.7V35c.5-.1 1-.1 1.5-.2v-.1c-.8-.1-1.6-.2-2.3-.2-.8 1.3-1.5 2.7-2.3 3.9-.8 1.2-2 2.1-3.4 2.7-.2.1-.5.2-.6.1-.1-.1-.2-.4-.2-.7.1-2 .1-4 .2-5.9 0-.6-.2-.9-.9-1-2.9-.5-5.8-.9-8.8-.8-4.4.2-8.1 1.9-10.5 5.8-.3.5-.5 1-.7 1.6 2.6-3.4 6-5.3 10.1-5.7 0 .1.1.1.1.2-.2.1-.3.3-.5.4-2.7 1.8-4.9 3.9-6.3 6.9-.8 1.8-1.1 3.7-1 5.6.1 1.5.9 2.5 2.1 3.4.5.4 1.1.8 1.6 1.3-3-.4-5.8-1-7.3-4.1 0 .1-.1.3 0 .4.3 2.1 1.7 3.1 3.6 3.6 1.9.5 3.9.7 5.8 1.1 2.7.6 5.4 1.2 8.2 1.8.7.2 1.3.3 2.2.5.4-1.6.9-3 1.2-4.6.2-1 .3-2 .5-2.9 0-.3.2-.5.3-.7.2.1.5.2.7.4 1.7 1.6 2.3 3.7 2.6 5.9v.1c.1 1.5.8 1.9 2.5 1.2-.4-.1-.6-.1-.8-.2-1-.2-1.2-.6-1.1-1.6l.9-5.4c0-.1.1-.3.2-.6.2.3.4.5.6.7 1.2 1.8 1.8 3.8 2.3 5.8.1.5.3 1 .5 1.4 3.7 5.9.1 13.7-6.9 14.6-2.7.3-5-.3-7.1-2-6.3-4.9-13.2-5.9-20.7-3.1-2.3.9-4.8 1.2-7.3 1.2-6.1 0-11.6-1.8-16.1-6-3.7-3.4-5.7-7.7-6.6-12.6l-.3-2.4c-.5 4.6 1.3 12 7.2 17.2 5.1 4.4 11 6.5 18 5.8-6.1 6-8.6 13-6.1 21.3 2.5 8.2 8.2 12.9 16.7 14.3-1.1 1.1-2.3 1.9-3.7 2.5-3.1 1.3-6.3 1.7-9.5 1.7-6.2 0-12.1-1.1-17.7-3.7-1.9-.9-3.6-2-5.1-3.4 1.3 3.2 3.5 5.8 6.6 7.5-2 .4-9.9-1.9-13.7-4.1-4.3-2.4-7.6-5.8-10.2-9.9-2.5-4.2-3.9-8.7-4.9-13.5-.9 3.8-.7 7.5.3 11.3-.4-.4-.8-.7-1.2-1.1-3.5-3.7-5.6-8.2-6.7-13.1-2-8.7-.9-17.1 2.7-25.3.2-.6.5-1.1.8-1.7-.9.6-2.7 2.9-3.6 4.6-.9 1.8-1.6 3.6-2.4 5.5-.2-1.3-.4-2.4-.5-3.6-.2-4.5.7-8.8 2.4-13 4.2-10.9 11.9-18.5 22.7-23 .7-.3 1.4-.3 2.2-.1 2.3.6 4.6.3 6.7-.7.2-.1.4-.2.5-.3 0 0 .1-.1.2-.3-.5.1-.9.1-1.3.2-6.5 1-12.4-4.2-12.4-10.8 0-.9.2-1.8.4-2.7.2-.9.5-.9 1.4-.7 3.8 1.1 7.6 2.2 11.4 3.1 4.1 1 8.3 1.4 12.5 1.1 3.3-.3 6.6-1 9.8-2 3.3-1 6.6-1.4 10-1.4 2.4 0 4.8.7 7.1 1.5 3 1 6 2.1 9.2 2.6.8.1 1.7.3 2.5.2 4.6-.1 8.9 1.2 13 3.2 2.2 1 4.2 2.3 6.1 3.8.7.8.9 1.5.8 2.9zM67.4 11c.5-.1.7-.1 1-.1.9 0 1.1.4.7 1.1-.4.7-.4 1.5-.1 2.3 0 .1.3.3.5.3 1.6-.1 3.1.3 4.6.8.5.2.8.1 1-.4.6-1.4.6-1.5-.7-2.4-1.2-.8-2.3-1.7-3.7-2-1.1-.2-2.2-.2-3.3.4zm8.1 4.9c1.7.3 3.1-.4 4.5-1.3-1-.1-2-.3-3-.4-.5.5-1 1.1-1.5 1.7z" style="fill-rule:evenodd;clip-rule:evenodd"/><path class="st0" d="M67.4 11c1.1-.7 2.2-.6 3.2-.4 1.4.3 2.6 1.2 3.7 2 1.2.9 1.2.9.7 2.4-.2.5-.4.6-1 .4-1.5-.5-3-.9-4.6-.8-.2 0-.4-.2-.5-.3-.2-.8-.3-1.5.1-2.3.4-.8.2-1.1-.7-1.1-.2 0-.4.1-.9.1zm8.1 4.9c.5-.6 1-1.2 1.5-1.7 1 .1 1.9.3 3 .4-1.4.9-2.8 1.6-4.5 1.3z"/></svg>