<svg xmlns="http://www.w3.org/2000/svg" xmlns:xlink="http://www.w3.org/1999/xlink" viewBox="0 0 800 800" style="enable-background:new 0 0 800 800" xml:space="preserve"><defs><path id="a" d="M-100-100H900V900H-100z"/></defs><clipPath id="b"><use xlink:href="#a" style="overflow:visible"/></clipPath><path d="M668.6 316.5c0-1.8-.3-8.7-.3-11.4.4-20.9-5.1-49.5-8-63.7-6.8-27-14.8-50.5-27.7-70.9-4.3-6.9-18-23.3-21.1-23.9-.1 0-.2.1-.2.2-2 16.5-4 33-6.1 49.5-.4 4-.9 8.1-1.3 12.1l-5.7 42.3c-1.3 8-2.3 16.3-3.6 23-.5 2.8-1.1 5.7-1.7 8.5.2 7.2 9.9 13.5 4.8 19.4-5.2 4.2-9.4 9.3-12.6 13.9l-5.4 8.7c.2-20.8.4-40-2-56.5-2.9-17.5-9.8-36.3-3.1-49 2.9-13.8-1-33.7-4.2-44.3-10.1-32.8-22.1-62.5-39.8-87.6-9-12.1-13.6-18.5-23.8-24.4-.2 1.8-2.6 24-4 35.9-1.7 15.5-3.3 31.1-5.1 46.5-3 21.6-3.3 43-2.5 51.4 1.1 6.8 6.4 5.2-2.2 17-9 10.6-18.1 28.2-22.7 42.3-4.6-31.9-16.5-49.8-20.9-56.4-3.5-5.4 1.1-15.5 1.9-19.6 2.8-16.3-2.3-35.8-3.6-42.1-9-42.9-16.9-85.5-38.4-116.1-3-3.9-5.7-6.9-9.6-10.9-3.9 4-6.6 7-9.6 10.9-21.1 30.4-29 73.2-38.1 116-1.3 6.3-6.4 26-3.6 42.1.9 4.1 5.5 14.3 1.9 19.6-4.4 6.5-16.3 24.5-20.9 56.4-4.6-14.1-13.7-31.8-22.7-42.3-8.6-11.7-3.3-10.2-2.2-17 .9-8.3.6-29.8-2.5-51.4-1.7-15.5-3.3-31.1-5.1-46.5-1.3-11.9-3.8-34.1-4-35.9-10.1 5.9-14.8 12.3-23.8 24.4-17.8 25-29.7 54.6-39.8 87.6-3.3 10.6-7.2 30.6-4.2 44.3 6.7 12.8-.1 31.5-3.1 49-2.3 16.5-2.1 35.7-2 56.5l-5.4-8.7c-3.3-4.6-7.5-9.8-12.6-13.9-5.2-5.9 4.6-12.1 4.8-19.4-.5-2.8-1.1-5.7-1.7-8.5-1.3-6.6-2.3-15-3.6-23l-5.7-42.3c-.4-4-.9-8.1-1.3-12.1-2-16.5-4-33-6.1-49.5 0-.1 0-.2-.2-.2-3.1.6-16.8 17.1-21.1 23.9-12.8 20.4-20.9 43.9-27.7 70.9-2.9 14.3-8.4 42.8-8 63.8 0 2.7-.2 9.7-.3 11.4-.3 13.6-4.4 35-2 60.6.9 8 .8 9.2 3.4 20.2 3.6 14.7 7.4 25.7 15.2 35.9.5.7.7 1.1 1.2 2 4.8 8.4 2.7 25.4-.2 30.4-.3.5-.7 1.3-1.1 1.8-2.4 3.2-3 8.7-3 14.8 0 3.2 6.6 64.8 10.9 81.8 2.4 11.9 14.7 69.3 58.2 131.2 9.6 13.6 23.8 29.7 37.7 39.1 12.4 8.4 29.7 13.3 50.4 13.3 11.6 0 22.4.1 30-3.4 2.3 2.3.4 14.9 1.1 19.4 1.3 9.1 2.6 12.8 8.4 17.2 7.9 6.1 16.5 5.6 28.9 7.6 6.9 1.1 29.3 1.1 29.3 1.1h.6c11 .1 22.4-.2 29.3-1.1 12.3-1.8 20.9-1.5 28.9-7.6 5.8-4.5 7-8.2 8.4-17.2.7-4.5-1.1-17.1 1.1-19.4 7.7 3.5 18.3 3.4 30 3.4 20.6 0 37.9-4.9 50.4-13.3 13.8-9.2 28.1-25.4 37.7-39.1 43.5-61.9 55.8-119.3 58.2-131.2 4.3-17.1 10.9-78.7 10.9-81.8 0-6.1-.6-11.5-3-14.8-.4-.5-.9-1.3-1.1-1.8-2.9-4.9-5-22-.2-30.4.4-.9.7-1.3 1.2-2 7.8-10.2 11.6-21.3 15.2-35.9 2.7-11 2.6-12.2 3.4-20.2 2.4-25.7-1.6-47.1-1.9-60.6M250.3 182.2c7.7-27.6 16.7-52.1 28.3-75.2 1.2 1.4 5.3 72.1 4.2 79-1.3.7-3.8.4-5.3 1-3.7 1.3-7.3 3.4-10.3 5.5-8 5.6-14 13.6-21.6 19h-.1c-1.1-2.1 3-22.8 4.8-29.3m24.4 44.4c20.8-1.4 39.9 32.2 42.9 75 2.9 42.9-11.6 78.7-32.3 80.1-20.8 1.4-39.9-32.2-42.9-75-2.9-42.8 11.5-78.7 32.3-80.1M148 298.1c1.9-23.7 7.8-79.5 28.8-113.3.7 20.5 9.8 94.9 9.8 95.6-12.7 1.2-30.4 6-38.6 17.7m1.9 83.9c-6.7-45 10.7-61.3 15.9-64.3 6.7-4.8 20.8-6.6 36.8 25.7 17.4 40.9 12.1 73.6-8 83.3-23.8 8.2-39.2-17.9-44.7-44.7m174.6 337.7c-3.5 2.9-12.1 6.7-19.6 6.8-6.5-.3-28.4-1.4-36.8-6.8-9.4-5.4-28.4-23.5-45.3-51.5-18.7-28.7-33.9-67.1-42.9-101.1-2.7-10.3-12.8-62.4-12.2-79 0-4 1.3-6.5 3.7-8 32.5-17.3 86.1-42.1 129.9-47.2 20.9.4 25.5 11.9 30.6 22.1 11.7 23.3 8.3 60.5 3.7 82.1-2.7 13-12.6 22-18.4 26.9-5 4.1-3.8 8.6.6 11 3.6 2.4 21.8 11.9 27.5 58.3 4.4 58.2-7.5 74.6-20.8 86.4m74.7-675.3.9-2.1.9 2.1s24.6 66.8 29.3 124.4c0 .6-.4 1.1-1 .8-29-7.5-30-7.4-57.7-.2-1 .4-1.6-.4-1.5-1.1 4.7-57.5 29.1-123.9 29.1-123.9m.5 150.9c26.9 0 46.7 37.4 46.7 81.9s-15 87.6-46.7 87.6-46.7-42.9-46.7-87.6 19.8-81.9 46.7-81.9m44.9 252.3c-.9 1.1-6 2.4-6.2 15.9-.1 2-.3 5.9-.3 5.9l-1.5 104.4V594l1.5 104.4s.2 3.9.3 5.9c.1 13.6 5.2 14.9 6.2 15.9 2.4 1.4 2.6 3.9 2.5 6.2.2 4.3 0 28.5-.6 36.8 0 1.8-.8 2.6-4.9 3.2-10.5 1.2-33.3 2.7-41.6 2.6-8.4.3-31.1-1.3-41.6-2.6-4.1-.6-4.9-1.2-4.9-3.2-.6-8.3-.8-32.4-.6-36.8-.1-2.3.1-4.7 2.5-6.2.9-1.1 6-2.4 6.2-15.9.1-2 .3-5.9.3-5.9l1.5-104.4v-20.2l-1.5-104.4s-.2-3.9-.3-5.9c-.1-13.6-5.2-14.9-6.2-15.9-2.4-1.4-2.6-3.9-2.5-6.2-.2-4.3 0-28.5.6-36.8 0-1.8.8-2.6 4.9-3.2 10.5-1.2 33.3-2.7 41.6-2.6 8.4-.3 31.1 1.3 41.6 2.6 4.1.6 4.9 1.2 4.9 3.2.6 8.3.8 32.4.6 36.8.1 2.3-.1 4.8-2.5 6.2m75.9-340.5c11.7 23.1 20.8 47.5 28.3 75.2 1.8 6.5 5.9 27.1 4.8 29.3h-.2c-7.7-5.5-13.6-13.4-21.6-19-3-2.1-6.6-4.3-10.3-5.5-1.5-.5-4-.4-5.3-1-1-7.1 3-77.6 4.3-79m-37.7 194.4c2.9-42.9 22.1-76.4 42.9-75 20.8 1.4 35.2 37.2 32.3 80.1s-22.1 76.4-42.9 75c-20.6-1.4-35.2-37.2-32.3-80.1m141.9 249c-.4 3.7-2.7 4.5-5.5 3.6-23.3-5.3-57-12.9-58.8-13.4-2.7-.8-6.5-1.8-6.2-7.4.4-5.5.4-7.4 1.2-25.7.8-18.4-25-24.5-25.7-6.2-.8 18.4-4.8 144.7-5.5 165.4-.8 15.2 23.8 17.6 25.7 1.2 1.1-12.8 1.8-31.9 1.8-38.6-.3-4.4-2.4-4.6-5.5-4.9-3.3-.3-4.3.1-4.2-2.3.2-8.4.9-37.6 1.5-50.3-.2-3.2.9-4.9 4.8-4.3 15.5.6 42 4.8 63.2 8.5 4.1.7 7.2 1.7 4.7 7.1-9.2 29.6-22.4 60.6-38.2 84.7-16.9 28-36 46.1-45.3 51.5-8.4 5.4-29.7 7.2-36.8 6.8-7.4-.1-16.1-3.9-19.6-6.8-13.4-11.8-20.9-37-21.5-83.9-1.4-74.2-.9-145.5 14.7-180.7 4.6-10.5 9.2-21.6 30-22.1 43.9 5.1 97.5 29.8 129.9 47.2 2.4 1.5 3.7 4 3.7 8 .6 12.2-4.5 42.8-8.4 62.6M649.2 382c-5.5 26.7-20.9 52.9-44.7 44.7-20.1-9.7-25.4-42.5-8-83.3 16-32.3 30.1-30.5 36.8-25.7 5.2 2.9 22.6 19.4 15.9 64.3m-36.7-101.7c.1-.6 9.2-75.1 9.8-95.6 20.9 34 26.9 89.7 28.8 113.3-8.2-11.6-25.9-16.4-38.6-17.7M263.8 602.6c-1.8-.4-12.5-.3-14.1 0-3.3.1-3.2 3-3.1 6.2-.3 6 .4 42.8.6 45.3 0 3.6-.2 10 4.3 9.8 2.5.4 9.8 1.1 14.7 0 11.5-1.9 12.5-56.5-2.4-61.3m-14.7-51.4c2.1-.1 8.7-.3 12.2-1.8 8.9-2 10.8-51.9-1.2-50.9-4.4.1-13.1.4-14.7.6-3.3.1-3.2 3-3.1 6.2.1 5.5 1 37.8 1.2 40.5.1 3.4 1.2 5.6 5.6 5.4" style="clip-path:url(#b);fill-rule:evenodd;clip-rule:evenodd;fill:#fff"/></svg>