<svg width="70" height="70" fill="none" xmlns="http://www.w3.org/2000/svg"><path d="M20.004 14.941v41.402s-.666 9.903 14.623 9.567c0 0 13.754 1.658 15.486-9.237V30.36s-1.065-5.38-10.437-5.38c0 0-6.445-.134-6.775 1.929l-.068-10.37s2.063-2.325 4.72.068l-.068 6.182h12.627v-7.847s-.03-10.496-14.867-9.904c-.006 0-14.108-1.193-15.24 9.904Z" fill="#575758"/><path d="M29.907 39.333V58.34h-.386v1.022h1.01v.373h3.03v-.417h.404v-9.885s1.095-1.438 3.63-1.12v-5.166s2.203-1.132 6.285-1.132V37.29s-1.518-2.161-5.043.25c0 0-4.028 2.204-4.879-.27h-3.322v.331h-.747v.698h-.361v.772h.367l.012.263Z" fill="#fff"/><path d="M33.612 59.784h-3.13v-.374h-1.01v-1.122h.387V39.333l-.01-.214h-.37v-.871h.361v-.698h.747v-.33h3.409l.011.033c.169.49.48.827.927 1 1.425.552 3.794-.712 3.878-.757.81-.553 1.58-.91 2.291-1.063.573-.123 1.109-.113 1.594.028.828.24 1.21.775 1.226.798l.01.013v4.79h-.05c-2.101 0-3.692.307-4.657.565-.916.245-1.456.49-1.579.55v5.191l-.056-.007c-1.293-.162-2.198.146-2.73.432-.515.278-.789.589-.844.656v9.92h-.405v.415Zm-3.03-.1h2.93v-.417h.405v-9.852l.01-.013c.012-.015.288-.372.88-.693.538-.291 1.448-.604 2.74-.453v-5.14l.027-.014c.005-.003.568-.29 1.622-.57.963-.257 2.547-.564 4.637-.568v-4.66a2.336 2.336 0 0 0-1.17-.75c-.737-.212-1.994-.206-3.796 1.026l-.004.002a9.5 9.5 0 0 1-1.413.6c-1.067.351-1.925.406-2.55.164-.465-.18-.792-.525-.974-1.027H30.69v.33h-.749v.699h-.361v.67h.365l.015.314v19.054h-.386v.923h1.01v.375Z" fill="#fff"/><path d="M34.283 44.989v2.907h2.969v-4.028l-.417-.728h-.685l.019.687s.704.122.79.564l-.264.25c.006-.008-.753-1.146-2.412.348Z" fill="#575758"/><path d="M37.303 47.946h-3.069v-2.98l.017-.015c1.405-1.265 2.192-.662 2.4-.448.022.023.04.043.053.06l.2-.19c-.1-.382-.735-.497-.743-.498l-.04-.007-.02-.778h.765l.437.765v4.091Zm-2.967-.1h2.869v-3.964l-.395-.692h-.607l.016.594c.157.035.71.184.79.595l.005.027-.283.27-.07-.071a.05.05 0 0 0-.01.056.971.971 0 0 0-.629-.378c-.488-.081-1.056.164-1.688.728l.002 2.835Z" fill="#575758"/></svg>