<svg version="1.1" id="Layer_1" xmlns="http://www.w3.org/2000/svg" x="0" y="0" viewBox="0 0 186.3 186.3" width="800" height="800" style="enable-background:new 0 0 186.3 186.3" xml:space="preserve"><style>.st1{fill:#fff}</style><path id="base_4_" d="M93.5 185.1S60.3 172.7 41.8 160c-27.9-19.3-29-46-29-99.4V28.9L93.5 1.1l80.7 27.8v31.7c0 53.4-1.1 80.1-29.1 99.4-18.4 12.8-51.6 25.1-51.6 25.1z" style="fill:#12233e"/><g id="new_1_"><path class="st1" d="M43.6 111.4c-5.1 2.5-11.8 5.4-19.2 8.1 1.3 5.7 3.1 10.7 5.6 15.3 5.6-3.5 10.5-7.1 14.3-10.1-.6-4.7-.8-9.1-.7-13.3zm12.5-41.6C46.7 66 32.6 59.3 20.8 50.4v20.1c11 4.2 22.3 6.8 30.2 8.1 1.6-3.1 3.3-6 5.1-8.8zm13.3-14.9c-6.5-6.7-15.6-17.3-22.6-29l-18 6.2c10 12.6 24.1 23.6 33.4 29.8 2.3-2.6 4.7-4.9 7.2-7zm8.2-6.2c3.3-2.1 6.5-3.8 9.4-5.1-2.7-7.3-5.9-17.8-7.9-29l-16 5.5c4.4 11.3 10.1 21.6 14.5 28.6zM47.2 88.5c-6.9.3-16.3.2-26.1-1 .2 5.8.4 11.1.9 16 8.7-1 16.7-2.6 22.7-4.2.6-3.7 1.4-7.4 2.5-10.8zm-.3 50.9c-2 2.4-4.4 5.1-7.1 8 2.1 2 4.5 3.9 7.2 5.8 1.6 1.1 3.4 2.2 5.2 3.4-2.2-6-4-11.7-5.3-17.2zm76.8-66.1c1.6 1.3 5.8.1 5.8.1l-3-3.6-6.5-4.3s2.1 6.5 3.7 7.8zm21.2 36.1-3.9-3.1 2.2 5.4 6.3-.5z"/><path class="st1" d="M98.1 11.3c-2.7 8.6-3.5 19.1-.5 29.5h-.1.1c1.1-1.1 9.4-9.8 16.8-17.9 0 0 9.8 11.2-3.9 22.8 0 0 24.4 17.1 26 17.8 0 0-1.3 5.3-.1 9.8l19.2 37.2-9.7 11.4-14.2-8 6.9 11s-7.8 1-10.1-.2c-1.3-7-7.5-18.2-7.5-18.2l-14.5-5.9s-6.3-7.8-5.9-19.1c0 0-7.2 29.6 12.2 37l27.2 34.6c25.2-17.4 26.2-41.6 26.2-89.8V34.8L98.1 11.3z"/></g></svg>