<svg width="70" height="70" fill="none" xmlns="http://www.w3.org/2000/svg"><path d="m65.152 16.62-.108-1.18-1.071-.75c-4.504-3.11-13.083-6.755-28.416-6.755-5.791 0-11.046.536-15.655 1.608a9.24 9.24 0 0 0-6.006-2.251c-5.04 0-9.222 4.074-9.222 9.222 0 1.609.429 3.11 1.18 4.503.214 7.935 2.68 16.192 7.506 24.556 7.934 13.404 16.406 17.372 20.48 19.194.323.108.537.215.752.323l1.073.535 1.072-.537c.214-.108.536-.214.75-.322 4.183-1.823 12.547-5.791 20.267-19.195 8.47-14.69 7.72-25.411 7.398-28.95Z" fill="url(#a)"/><path d="M44.13 54.585c.407 1.094.626 2.727-.788 3.909-.117.087-.234.19-.38.277-.102.073-.204.131-.291.204a34.225 34.225 0 0 1-4.55 2.683c-.963.482-1.794.875-2.45 1.182h-.015v-2.042c3.004-1.619 5.804-3.675 8.43-6.315.014.03.029.073.043.102Z" fill="url(#b)"/><path d="M55.287 35.86c.787 1.007 1.312 2.144 1.4 3.282-.54-.54-1.371-.715-2.363-.788.35-.846.671-1.677.963-2.494Z" fill="url(#c)"/><path d="M55.503 44.29c-.218.364-.423.729-.641 1.079-.22.35-.438.7-.642 1.035-.204.321-.408.627-.598.933-.233.35-.452.686-.685 1.021-.22.307-.423.613-.642.92a39.07 39.07 0 0 1-1.21 1.618c-.248.32-.496.627-.759.933-.408.496-.816.963-1.21 1.415-.321.35-.642.7-.977 1.035-.234.248-.482.496-.715.73-.32.32-.642.626-.962.904-.35.335-.686.627-1.036.918.146-.977-.058-2.041-.569-3.164 2.786-2.975 5.294-6.621 7.54-11.098.35-.686.67-1.371.977-2.042h.088c2.143 0 3.427 1.502 2.041 3.763Z" fill="url(#d)"/><path d="M60.508 33.294c-.117.379-.263.787-.409 1.181a45.327 45.327 0 0 1-1.035 2.581c-.423-1.225-1.488-2.508-2.99-3.587 1.867-6.169 2.086-11.113 1.794-14.059l4.637-2.58c.03.247.044.524.059.816.204 3.019.35 8.4-2.056 15.648Z" fill="url(#e)"/><path d="m40.703 31.955-1.823 1.608 1.394.43 1.394-1.503-.751-.32-.214-.215Zm2.467 1.072-.645-.215-1.5 1.716 1.072.322c.214-.858 1.073-1.823 1.073-1.823Zm-8.365-5.361c.643.751 1.286 1.823 1.286 1.823 1.072-1.072 3.324-1.5 6.22-1.394-4.074-.86-7.506-.429-7.506-.429Zm10.08.857s-.214.43-.322.537c-.108.108-.858.215-1.286.323-.43.214-1.18.536-1.395.75-.107.108-.107.43-.107.537 0 0 .067.03.145.06-.019-.02-.038-.04-.038-.06v-.322s1.395-1.072 3.538-1.072l.323-.643-.858-.11ZM30.84 26.058s1.18 0 2.788.322c-1.072-.751-2.789-1.18-2.789-1.18v.858Zm3.966 3.752.322.108.643-.108c-1.18-1.5-2.573-1.609-2.573-1.609.644.429 1.608 1.609 1.608 1.609Zm4.72-5.361c-.109-.214-.323-.214-1.61-.429-1.179-.108-2.25-.214-2.465-.214-.215 0-.323.108-.323.108s-.643.428-1.18.75c-.536.323-.643.43-.75.644-.108.108.214.537.214.537l.858 1.072c.107 0 .428.214.428.214s1.715-.107 2.788-.215h2.789c.108 0 0-.428-.215-.965-.214-.43-.535-1.502-.535-1.502Zm2.524 6.368.048-.042a.588.588 0 0 1-.177-.046.475.475 0 0 0 .129.088Zm-13.462-7.334s.75.43.857.43c.107 0 1.609.536 2.252.75.537.215.857 0 .965 0 .108 0 1.931-1.072 1.931-1.072-1.608-.643-3.109-1.071-3.109-1.071-.11-.002-2.896.963-2.896.963Zm1.5 2.252.323.108s.214 0 .214-.214V25.2l-.322-.214-.429-.108c.108.108.108.214.108.214h.106c0-.108.108-.108.108 0 0 0 .215.108.108.429.107.106-.108.214-.216.214Zm10.295-.108.643 1.18 2.145.751c-.857-1.823-2.252-2.145-2.252-2.145l-.536.214Zm-14.263.966s-.322-.429-.643-.215c-.239.16-.475.555-.538.966l-.64.213c-.214-.43-1.18-1.609-1.18-1.609l-.214.858c.108.107.643.965.75 1.18l-.322.323s-.108.214-.108.322c0 .108-.106.215-.106.215l-.429.214h-.108l-1.5-1.18v.858h.108c.108.214.322.643.857.857.429.215.966.215 1.18.107.214.108.322.108.429.214.428.215.536.107.536.107l.643-.215h.108l.107-.108.214-.428s1.072.108 1.5.108c.43-.643 1.824-1.609 2.79-1.715.965 0 2.573.214 3.86 1.5 1.18 1.287.857 3.003.857 3.003l2.36.751-1.072-.751c-.858-2.145-2.895-4.075-2.895-4.075s-.537-.108-.858-.108c-.322-.107-.536-.322-.536-.322s-.108-.108-.323-.429l-.214-.428s-.214-.215-.537-.43c-.322-.213-1.5-.321-2.145-.428-.643-.106-.643 0-.643 0 1.823.429 2.36.537 2.466.643 0 0 .108.215.214.322-1.5-.322-2.894-.107-3.217 0a.974.974 0 0 1 0 1.072c-.214.215-.857.537-.857.537h-.215l-.536-.106c-.484-.097-.358-.886-.328-1.04-.018.133-.02.268.005.396.107.537.215.537.537.537-.537-.214-.429-1.072 0-1.608.323-.43.643-.108.643-.108ZM22.26 28.2l.215-.106v-.86l-.215.109v.857Zm-1.072-5.254c-.537.643-.75 1.5-.75 1.5s-.109 1.501-.109 1.716c-.108.214.215.322.215.322l-.108 1.18h.643l.108-.752v.43h.108v-.644h-.108v-.429l.965.537.108.215.215.214h.214l.106-.108v-.107c-.643 0-.643-.322-.643-.322s.108-.75.215-.965c.106-.215.536-.108.536-.108l-.106-.105h-.215c-.214-.108-.857-.537-1.072-.643v-.108l.108-.108v-.429h.107c0-.106.108-.106.108-.214.214 0 1.823-.322 1.823-.322l-.066-.015c.25-.028.709-.093.709-.093l-2.037-.537-.108.322v-.108c-.43-.105-.751-.211-.966-.32ZM47.46 34.099l-.857 1.18v.107h1.18c.212-.75-.323-1.287-.323-1.287Zm-1.18 3.86-.429-1.286h-.107l-.644 1.18.108.106c.536.214 1.072 0 1.072 0Zm-4.932-6.112 2.36.751c.536-.429 1.286-.536 1.286-.536-.429-.215-2.252-.966-2.788-1.18 0 0-.079-.027-.156-.065l-.916.816.214.214Zm4.075 3.646c-.537 1.072-.429 1.823-.429 1.823l.537-1.18v-.214c.106 0-.002-.215-.108-.43Zm.964.751.322 1.394s.322-.322.643-.75c.322-.43.429-.858.429-.858l-1.286.108-.108.106Zm-.643-1.286.214.322.108-.108.857-1.072v-.106c-.428-.002-1.18.964-1.18.964ZM29.66 24.878l.004.001c-.038-.098-.112-.11-.112-.11-.06 0-.145.066-.215.144l.107-.037.216.002Zm-6.755-1.823c1.715.214 2.037.537 2.037.537s.643-.108.965-.108c-.536-.43-2.894-1.18-2.894-1.18s-.108.322-.108.75Zm6.432 1.858-.214.071-.108.751h.108l.214-.108c-.106-.214-.106-.322-.106-.536 0-.047.051-.116.106-.178Zm-10.186.5c0 .322.214.322.214.322l-.108 1.18h.751v-.108H19.9v-.106h-.106l.107-.215.107-.536-.108-.108v-.215l.108-.106.108-1.286-.485-.292c-.134.102-.266.208-.406.303a32.831 32.831 0 0 0-.074 1.167Zm2.895 2.682h.108v-.751l-.108.75Zm-.215-.108h.108v-.751l-.108.75Zm40.675-11.152c-18.53-5.36-39.3-2.457-39.196-.971a9.285 9.285 0 0 1-2.282 6.777c.316.102.722.204 1.233.306l.215-.537s.214 0 .322.108c0-.537.322-.537.322-.537s0-.106.108-.106c.537.107 2.038.858 2.68 1.18.644.322.644.428.644.428s1.5 0 1.93-.106c.43 0 1.18-.322 2.252-.643 1.072-.322 1.287-.429 1.501-.429.215 0 2.145.107 3.86.323 1.715.214 3.324.857 3.646 1.071l.537.107.108-.323-.858-.322s.108-.536.108-.643c0-.106.108-.214.215-.214s1.071.214 1.394.322c.322.107 1.394.857 1.5.857.107 0 .107.108.107.108 0 .215-.215.644-.215.644s.323.108.43.214c.106.106.428.322.75.643.322.215.215.537.215.537l.75.75v.323l1.824 1.823v.108l-.862.534s1.18-.108 2.037.322c.857.429.965.643.965.857a4.858 4.858 0 0 1-.536.215c-.644.214-2.252 1.286-2.252 1.286v.108l.858.214c.965-.857 2.68-1.18 3.968-.965 2.04.398 3.863 1.234 5.29 2.262 1.5 1.078 6.745-13.402 6.432-16.631Zm-9.042 23.698c-2.252 0-4.503-.751-6.112-2.68v.107c-.965 1.287-2.037 1.287-2.466 1.287-.429 0-1.823-.644-2.36-1.287-.536-.643-.536-1.822-.536-1.822l-2.145-.752-2.68-1.5-.43-.108c-.857.429-1.93.108-2.894-.643-.108.428-.643 1.5-1.287 2.037-.643.535-1.929 1.286-2.894 1.286-.966 0-3.11-1.072-3.754-2.574-.645-1.502 0-3.109 0-3.109l-1.072-.214-.429-.537s-1.286 1.072-2.68.643c-1.394-.429-2.574-1.608-2.895-2.68-.214-1.072.108-2.037.215-2.145-.215-.751-.215-1.18-.215-1.18h-.106v-.111a9.269 9.269 0 0 1-4.718 1.29 9.286 9.286 0 0 1-5.241-1.61c.223 2.337.856 5.086 1.702 8.151 1.18 4.29 5.04 5.683 10.83 6.649 10.693 1.708 21.008 8.834 23.567 14.633.495 1.121 4.292-2.023 7.724-7.92 1.39-2.252 3.021-5.211.876-5.211Zm-6.326-8.043c.106.107.214.107.322.215.643.428.965.643 1.072 1.608.106.751-.108 1.823-.643 2.788 1.992 1.35 4.5 1.099 6.434 1.244.981.075 1.181-.492 1.181-.492s.56-.976-.223-1.988c-2.04-2.634-5.819-4.458-8.143-3.375Zm-29.273 9.76c-1.395 0-3.003.536-2.038 2.037 7.935 13.618 16.299 16.835 19.838 18.551 1.609-.75 2.724-1.93 5.833-4.075 1.823-1.18 3.067-3.002 2.639-4.182-2.254-5.577-14.585-11.903-26.272-12.332Zm3.86-14.37v-.75l-.108.75h.108Zm7.827 3.11.857.643.216-.107.966-1.5c-1.18-.108-2.04.964-2.04.964Zm1.502 3.86-.643-1.609h-.215l-1.072 1.287c.75.644 1.93.322 1.93.322Zm-1.39-9.97c.025.062.037.15-.004.319 0 .428-.323.428-.323.428s.108 0 .323.108c.214 0 .322-.214.322-.428-.002-.314-.302-.422-.318-.428Zm-.541 6.753c-.751 1.394-.214 2.36-.214 2.36l.965-1.395v-.214l-.751-.751Zm-7.827-4.075h.107v-.643l-.107.643Zm.214.108h.107v-.645l-.107-.106v.751Zm11.473 5.039-1.715.108-.106.106.536 1.716c1.07-.75 1.285-1.93 1.285-1.93Zm-.857-2.466-.858 1.5.108.107 1.715.107c0-1.178-.965-1.715-.965-1.715Z" fill="url(#f)"/><path d="M62.506 16.835c-3.216-2.252-11.079-6.326-26.84-6.326-5.47 0-10.08.536-13.726 1.286.75 1.18 1.18 2.574 1.286 4.075a64.373 64.373 0 0 1 13.189-1.072c10.08.108 18.229 2.36 21.553 4.611l4.538-2.574Z" fill="url(#g)"/><path d="M14.004 23.163a6.649 6.649 0 1 0 0-13.297 6.649 6.649 0 0 0 0 13.297Z" fill="url(#h)"/><path d="M44.13 54.585c-.015-.029-.03-.072-.045-.102-2.625 2.64-5.425 4.696-8.429 6.315v2.042h.015c.656-.307 1.487-.7 2.45-1.182a48.005 48.005 0 0 0 4.55-2.683c.087-.073.19-.131.291-.204.146-.088.263-.19.38-.277 1.414-1.181 1.196-2.815.787-3.909ZM55.284 35.86a54.284 54.284 0 0 1-.962 2.494c.992.073 1.823.248 2.362.788-.087-1.138-.612-2.275-1.4-3.282Zm-1.822 4.667h-.088a52.1 52.1 0 0 1-.977 2.042c-2.246 4.477-4.754 8.123-7.54 11.098.51 1.123.715 2.187.57 3.164 4.284-2.833 9.857-12.177 10.076-12.541 1.386-2.26.102-3.763-2.041-3.763Zm9.1-22.881c-.015-.292-.03-.569-.059-.817l-4.637 2.581c.291 2.946.073 7.89-1.794 14.059 1.502 1.079 2.567 2.362 2.99 3.587.379-.875.729-1.735 1.035-2.581.146-.394.292-.802.408-1.181 2.436-7.146 2.304-12.615 2.056-15.648Z" fill="url(#i)"/><defs><linearGradient id="a" x1="35" y1="69.659" x2="35" y2="-27.738" gradientUnits="userSpaceOnUse"><stop stop-color="#E8E8E8"/><stop offset=".544" stop-color="#F7F7F7"/><stop offset="1" stop-color="#FCFCFC"/></linearGradient><linearGradient id="b" x1="37.772" y1="63.047" x2="42.309" y2="54.733" gradientUnits="userSpaceOnUse"><stop stop-color="#01164B"/><stop offset="1" stop-color="#001B50"/></linearGradient><linearGradient id="c" x1="55.339" y1="38.688" x2="56.397" y2="36.75" gradientUnits="userSpaceOnUse"><stop stop-color="#01164B"/><stop offset="1" stop-color="#001B50"/></linearGradient><linearGradient id="d" x1="46.443" y1="55.835" x2="53.868" y2="42.227" gradientUnits="userSpaceOnUse"><stop stop-color="#01164B"/><stop offset="1" stop-color="#001B50"/></linearGradient><linearGradient id="e" x1="55.573" y1="33.534" x2="63.315" y2="19.349" gradientUnits="userSpaceOnUse"><stop stop-color="#01164B"/><stop offset="1" stop-color="#001B50"/></linearGradient><linearGradient id="i" x1="37.586" y1="64.76" x2="64.008" y2="19.234" gradientUnits="userSpaceOnUse"><stop stop-color="#001A4C"/><stop offset="1" stop-color="#011C51"/></linearGradient><radialGradient id="f" cx="0" cy="0" r="1" gradientUnits="userSpaceOnUse" gradientTransform="translate(16.136 24.622) scale(44.3144)"><stop stop-color="#019EEF"/><stop offset=".154" stop-color="#0194E5"/><stop offset=".417" stop-color="#0278CB"/><stop offset=".755" stop-color="#034CA1"/><stop offset="1" stop-color="#04287E"/></radialGradient><radialGradient id="g" cx="0" cy="0" r="1" gradientUnits="userSpaceOnUse" gradientTransform="translate(23.283 16.67) scale(43.3738)"><stop stop-color="#65C5F7"/><stop offset="1" stop-color="#08388D"/></radialGradient><radialGradient id="h" cx="0" cy="0" r="1" gradientUnits="userSpaceOnUse" gradientTransform="translate(12.65 13.946) scale(9.89917)"><stop stop-color="#fff"/><stop offset="1"/></radialGradient></defs></svg>