<svg xmlns="http://www.w3.org/2000/svg" height="800" width="800" viewBox="0 0 40 40" style="enable-background:new 0 0 40 40" xml:space="preserve"><path style="fill:#e43d30" d="M17 19.4h-5.6l-1.5-1.8-.5-.6L7 14.2h10v-2H5.3l-4-4.7h37.4l-4.6 4.7H23v7.4h12.8l-5.4 5.5h-5.1L17 32.3z"/><path d="M16.5 33.4V19.9h-5.3l-1.7-2-.5-.5-3.1-3.7h10.6v-1.1H5.1L.2 7H40l-5.6 5.6H23.5V19H37l-6.4 6.5h-5.2l-8.9 7.9zm-4.8-14.5h5.9v12.2l7.5-6.5h5.2l4.4-4.5H22.5v-8.4h11.4L37.5 8H2.4l3.1 3.6h12v3.1H8.1l1.7 2 .5.5 1.4 1.7z"/></svg>