<svg version="1.1" id="Layer_1" xmlns="http://www.w3.org/2000/svg" x="0" y="0" viewBox="0 0 1200 1200" style="enable-background:new 0 0 1200 1200" xml:space="preserve"><style>.st5{fill:#fff}</style><switch><g><circle cx="600" cy="600" r="576" style="fill:#00060c"/><linearGradient id="SVGID_1_" gradientUnits="userSpaceOnUse" x1="831.078" y1="-51.108" x2="831.078" y2="528.351"><stop offset="0" style="stop-color:#ffce78"/><stop offset=".154" style="stop-color:#ffcc75"/><stop offset=".286" style="stop-color:#ffc76a"/><stop offset=".41" style="stop-color:#ffbf58"/><stop offset=".497" style="stop-color:#ffb647"/><stop offset=".791" style="stop-color:#ffb447"/><stop offset=".897" style="stop-color:#ffad48"/><stop offset=".973" style="stop-color:#ffa249"/><stop offset="1" style="stop-color:#ff9b49"/></linearGradient><path d="M845.8 343.1c-3.9 8.8-12.9 24.4-20.6 32.2-9.6 14.7-15.9 39.2-9.4 57.7 22.7-14.1 34.6-39.5 32.9-69.8-.3-6.8-1.3-13.2-2.9-20.1z" style="fill:url(#SVGID_1_)"/><linearGradient id="SVGID_2_" gradientUnits="userSpaceOnUse" x1="423.776" y1="-51.108" x2="423.776" y2="528.351"><stop offset="0" style="stop-color:#ffce78"/><stop offset=".154" style="stop-color:#ffcc75"/><stop offset=".286" style="stop-color:#ffc76a"/><stop offset=".41" style="stop-color:#ffbf58"/><stop offset=".497" style="stop-color:#ffb647"/><stop offset=".791" style="stop-color:#ffb447"/><stop offset=".897" style="stop-color:#ffad48"/><stop offset=".973" style="stop-color:#ffa249"/><stop offset="1" style="stop-color:#ff9b49"/></linearGradient><path d="M371.7 551.7c10.5-24.5 25-47.3 42.7-67.2 22.8-27.2 72.5-29.2 86.8 7.7 0-.1 0-.1.1-.3-9.5-28-42.6-50-69.5-37.8-35.1 14.7-67.3 60.9-85.5 93.6 2.6.2 5.3.5 7.9.9 5.9.7 11.6 1.8 17.5 3.1z" style="fill:url(#SVGID_2_)"/><linearGradient id="SVGID_3_" gradientUnits="userSpaceOnUse" x1="401.357" y1="-51.108" x2="401.357" y2="528.351"><stop offset="0" style="stop-color:#ffce78"/><stop offset=".154" style="stop-color:#ffcc75"/><stop offset=".286" style="stop-color:#ffc76a"/><stop offset=".41" style="stop-color:#ffbf58"/><stop offset=".497" style="stop-color:#ffb647"/><stop offset=".791" style="stop-color:#ffb447"/><stop offset=".897" style="stop-color:#ffad48"/><stop offset=".973" style="stop-color:#ffa249"/><stop offset="1" style="stop-color:#ff9b49"/></linearGradient><path d="M325.4 801.7c32.5 68.6 115.8 12.6 168.8-24.8-63.6-71.2-134.5-134.3-179.8-140.8-10.9 53.7-6.7 114.7 11 165.6zm123.3-28c-12.5 7.9-34.9 19.8-61.4 24.4-25.8-36.3-42.1-79.7-45.5-126.7 44.4 30.2 84.2 74.6 106.9 102.3z" style="fill:url(#SVGID_3_)"/><linearGradient id="SVGID_4_" gradientUnits="userSpaceOnUse" x1="365.817" y1="-51.108" x2="365.817" y2="528.351"><stop offset="0" style="stop-color:#ffce78"/><stop offset=".154" style="stop-color:#ffcc75"/><stop offset=".286" style="stop-color:#ffc76a"/><stop offset=".41" style="stop-color:#ffbf58"/><stop offset=".497" style="stop-color:#ffb647"/><stop offset=".791" style="stop-color:#ffb447"/><stop offset=".897" style="stop-color:#ffad48"/><stop offset=".973" style="stop-color:#ffa249"/><stop offset="1" style="stop-color:#ff9b49"/></linearGradient><path d="M381 433c6.4-18.5.2-43-9.4-57.7-7.6-7.8-16.7-23.5-20.6-32.2-6.1 22-2.8 52.8 8.5 68.4 3.9 7.3 15.6 18.8 21.5 21.5z" style="fill:url(#SVGID_4_)"/><path class="st5" d="M519.4 336.7c6.7-4 10.4-10.5 8.3-17.3-13.2-4.5-44-11.9-59.4-12.4-4 3.1 9.7 16 9.8 20.5 0 2.4 27.4 8.8 41.3 9.2z"/><linearGradient id="SVGID_5_" gradientUnits="userSpaceOnUse" x1="598.413" y1="-51.108" x2="598.413" y2="528.351"><stop offset="0" style="stop-color:#ffce78"/><stop offset=".154" style="stop-color:#ffcc75"/><stop offset=".286" style="stop-color:#ffc76a"/><stop offset=".41" style="stop-color:#ffbf58"/><stop offset=".497" style="stop-color:#ffb647"/><stop offset=".791" style="stop-color:#ffb447"/><stop offset=".897" style="stop-color:#ffad48"/><stop offset=".973" style="stop-color:#ffa249"/><stop offset="1" style="stop-color:#ff9b49"/></linearGradient><path d="M386.4 343.9c24.1 20.1 31.3 68.9 28.8 83.6 14-4.2 56.3-2.7 78.8 5.9 11.3 3.3 23.7 11 35.6 10.5 29.6 1 52.5-38.9 58.3-56.5l10.5-.1 10.6.1c5.9 17.6 28.9 57.5 58.3 56.5 11.9.6 24.3-7.2 35.6-10.5 22.6-8.7 65-10 78.8-5.9-3.9-88.1 60.4-81 59.8-160.6-42.1-11.3-91.1-19.5-135.4-15.9 24.1-11 56.1-12.6 83-12.6-10.4-84.6-115.5-142.8-190.3-170.8-.1 0-.3.1-.4.1-.1 0-.2-.1-.3-.1-74.6 27.9-179.9 86.2-190.3 170.9 26.9 0 59 1.6 83 12.6-44.3-3.6-93.4 4.6-135.4 15.9-.1 0-2.4 44.8 31 76.9zM811 285.5c-3.8 26.6-61 72.2-58.1 107.8 0 0-13.2-24.5-11.3-46.9 0 0-35.9 9.2-71.2 9.4 0 0-26.4 13.8-7.1 40.3l-11.3 7.2s-44.6-27.9-24-74.2c0 0-12.9-2.9-18.4-7.5 54.1-15.8 114-71.2 201.4-36.1zm-343.4-57.1s2.1-21.3 14.7-42.8c0 0 34.5 50 116.1-.9 81.7 51 116.2.9 116.2.9 12.6 21.4 14.7 42.8 14.7 42.8-40.2-5.9-102.2 53.6-130.9 51-.8 0-22.8.4-63.9-28.8-33.8-24-66.9-22.2-66.9-22.2zM517 291c22.5 14.9 70.3 30.7 70.3 30.7-5.5 4.5-18.4 7.5-18.4 7.5 20.6 46.3-24 74.2-24 74.2l-11.3-7.2c19.3-26.5-7.1-40.3-7.1-40.3-35.3-.2-71.2-9.4-71.2-9.4 1.9 22.4-11.3 46.9-11.3 46.9 2.8-35.9-54.2-81.1-58.1-107.8 52.8-19.8 108.5-9.6 131.1 5.4z" style="fill:url(#SVGID_5_)"/><linearGradient id="SVGID_6_" gradientUnits="userSpaceOnUse" x1="598.446" y1="-51.108" x2="598.446" y2="528.351"><stop offset="0" style="stop-color:#ffce78"/><stop offset=".154" style="stop-color:#ffcc75"/><stop offset=".286" style="stop-color:#ffc76a"/><stop offset=".41" style="stop-color:#ffbf58"/><stop offset=".497" style="stop-color:#ffb647"/><stop offset=".791" style="stop-color:#ffb447"/><stop offset=".897" style="stop-color:#ffad48"/><stop offset=".973" style="stop-color:#ffa249"/><stop offset="1" style="stop-color:#ff9b49"/></linearGradient><path d="M598.6 37.3c-712.5 17.3-712.3 1073.8-.2 1089.5h.1c712.1-15.9 712-1071.7.1-1089.5zm478.4 643-135.5-138c-4.5 4.4-13.5 13.3-18 17.7-1-55.2-16.3-110.1-44.1-157.8.8 28.5-14.1 62.3-30.9 77.9 20 21.4 37.2 45.4 51.2 71.1 31.3 8.6 67.3 33.4 65.9 68.5l99.7 101.6c-21.6 65.4-57.1 125.9-103.2 176.7-8.8 84.8-90.3 144.6-180.7 130.9-43.4 6.4-88.7 36.5-183.1 37.1-94.5-.6-139.6-30.7-183-37.1-90.4 13.8-171.9-46-180.7-130.8-46.1-50.9-81.6-111.4-103.2-176.7l99.7-101.6c-1.3-35.1 34.6-59.9 65.9-68.5 14-25.7 31.3-49.7 51.2-71.1-16.8-15.7-31.7-49.4-30.9-77.9-27.8 47.7-43.2 102.6-44.1 157.8-4.5-4.4-13.5-13.3-18-17.7l-135.5 138c-4.6-19.6-8.1-39.4-10.3-59.5 8.1-8.3 40.6-41.4 49.4-50.3l-.2-.2 33.2-33.8c-6.2-6.1-18.7-18.3-24.9-24.4l-63.4 64.6c1.9-159.7 76.7-320 208.3-411.2h-.4c34.2-24.8 71.7-44.9 111.1-60.3 24.9-9.5 50.2-17.2 76.5-22.7 27.1-12.5 60.7-24.5 98.9-35.5.1 0 .2.1.3.1.1 0 .3-.1.4-.1 38.1 11 71.8 23 98.9 35.5 26.3 5.6 51.6 13.2 76.5 22.7 39.4 15.3 76.9 35.5 111.1 60.3h-.4c131.6 91.2 206.4 251.4 208.3 411.2l-63.4-64.6c-6.2 6.1-18.7 18.3-24.9 24.4l33.2 33.8-.2.2c8.9 9.1 41 41.8 49.4 50.3-2.1 20.1-5.5 39.8-10.1 59.4z" style="fill:url(#SVGID_6_)"/><linearGradient id="SVGID_7_" gradientUnits="userSpaceOnUse" x1="773.081" y1="-51.108" x2="773.081" y2="528.351"><stop offset="0" style="stop-color:#ffce78"/><stop offset=".154" style="stop-color:#ffcc75"/><stop offset=".286" style="stop-color:#ffc76a"/><stop offset=".41" style="stop-color:#ffbf58"/><stop offset=".497" style="stop-color:#ffb647"/><stop offset=".791" style="stop-color:#ffb447"/><stop offset=".897" style="stop-color:#ffad48"/><stop offset=".973" style="stop-color:#ffa249"/><stop offset="1" style="stop-color:#ff9b49"/></linearGradient><path d="M764.8 453.9C738 442 705 464 695.6 491.9c0 .1.1.2.1.3 14.4-36.9 64.1-34.9 86.8-7.7 17.7 20 32.1 42.7 42.7 67.2 8.5-1.9 16.9-3.2 25.5-4-8.3-15.4-17.8-29.9-28.5-43.5-16.1-19.7-33.4-40.5-57.4-50.3z" style="fill:url(#SVGID_7_)"/><linearGradient id="SVGID_8_" gradientUnits="userSpaceOnUse" x1="795.5" y1="-51.108" x2="795.5" y2="528.351"><stop offset="0" style="stop-color:#ffce78"/><stop offset=".154" style="stop-color:#ffcc75"/><stop offset=".286" style="stop-color:#ffc76a"/><stop offset=".41" style="stop-color:#ffbf58"/><stop offset=".497" style="stop-color:#ffb647"/><stop offset=".791" style="stop-color:#ffb447"/><stop offset=".897" style="stop-color:#ffad48"/><stop offset=".973" style="stop-color:#ffa249"/><stop offset="1" style="stop-color:#ff9b49"/></linearGradient><path d="M871.4 801.7c17.8-50.9 21.9-111.9 10.9-165.5-45.3 6.4-116.1 69.5-179.8 140.8 53.1 37.2 136.5 93.2 168.9 24.7zm-61.8-3.6c-26.5-4.6-48.9-16.5-61.4-24.4 22.7-27.8 62.5-72.2 106.9-102.4-3.4 47.1-19.8 90.6-45.5 126.8z" style="fill:url(#SVGID_8_)"/><linearGradient id="SVGID_9_" gradientUnits="userSpaceOnUse" x1="598.428" y1="-51.108" x2="598.428" y2="528.351"><stop offset="0" style="stop-color:#ffce78"/><stop offset=".154" style="stop-color:#ffcc75"/><stop offset=".286" style="stop-color:#ffc76a"/><stop offset=".41" style="stop-color:#ffbf58"/><stop offset=".497" style="stop-color:#ffb647"/><stop offset=".791" style="stop-color:#ffb447"/><stop offset=".897" style="stop-color:#ffad48"/><stop offset=".973" style="stop-color:#ffa249"/><stop offset="1" style="stop-color:#ff9b49"/></linearGradient><path d="M598.4 909.7c-28.3 32.9-52.1 61.2-84.1 82.1 18.7 9 57.3 14.6 84.1 14 26.8.5 65.4-5 84.1-14-32-20.9-55.7-49.2-84.1-82.1z" style="fill:url(#SVGID_9_)"/><path d="M767.4 569.9c.5-.3 1.1-.5 1.6-.8-69.6 21.6-170.4 88.5-170.6 88.3-2.8-1.5-101.9-66.9-170.6-88.2 64.8 30.8 166 112.5 170.6 116.4v.1c3.7-3.3 103.6-84.2 169-115.8z" style="fill:#ff6100"/><linearGradient id="SVGID_10_" gradientUnits="userSpaceOnUse" x1="416.862" y1="-51.108" x2="416.862" y2="528.351"><stop offset="0" style="stop-color:#ffce78"/><stop offset=".154" style="stop-color:#ffcc75"/><stop offset=".286" style="stop-color:#ffc76a"/><stop offset=".41" style="stop-color:#ffbf58"/><stop offset=".497" style="stop-color:#ffb647"/><stop offset=".791" style="stop-color:#ffb447"/><stop offset=".897" style="stop-color:#ffad48"/><stop offset=".973" style="stop-color:#ffa249"/><stop offset="1" style="stop-color:#ff9b49"/></linearGradient><path d="M425.7 639.2c44.9 31.2 72.2 57.1 113.2 100.4l32.2-26.9c-56.5-57.2-185.8-154.3-262.4-137.8-23.1 3.6-45.4 21.4-46 37.1 15.9-17 53.5-44.3 163 27.2z" style="fill:url(#SVGID_10_)"/><linearGradient id="SVGID_11_" gradientUnits="userSpaceOnUse" x1="599.859" y1="-51.108" x2="599.859" y2="528.351"><stop offset="0" style="stop-color:#ffce78"/><stop offset=".154" style="stop-color:#ffcc75"/><stop offset=".286" style="stop-color:#ffc76a"/><stop offset=".41" style="stop-color:#ffbf58"/><stop offset=".497" style="stop-color:#ffb647"/><stop offset=".791" style="stop-color:#ffb447"/><stop offset=".897" style="stop-color:#ffad48"/><stop offset=".973" style="stop-color:#ffa249"/><stop offset="1" style="stop-color:#ff9b49"/></linearGradient><path d="M596.9 738.3s-.1 0 0 0l-30.5 30.3.2.2c-1.4 1.2-2.8 2.4-4.1 3.7h-.1c-93.7 96.2-284.9 194.9-277.1 19.4-35.9 57.5-27.8 173.2 65 179C498.3 982 602.2 791.1 694.6 702c69.3-73.1 202.9-144.7 239.6-90-20.7-65.1-120.9-34.9-167.7-5.4-61.5 35.3-115.3 77.2-169.6 131.7z" style="fill:url(#SVGID_11_)"/><linearGradient id="SVGID_12_" gradientUnits="userSpaceOnUse" x1="785.299" y1="-51.108" x2="785.299" y2="528.351"><stop offset="0" style="stop-color:#ffce78"/><stop offset=".154" style="stop-color:#ffcc75"/><stop offset=".286" style="stop-color:#ffc76a"/><stop offset=".41" style="stop-color:#ffbf58"/><stop offset=".497" style="stop-color:#ffb647"/><stop offset=".791" style="stop-color:#ffb447"/><stop offset=".897" style="stop-color:#ffad48"/><stop offset=".973" style="stop-color:#ffa249"/><stop offset="1" style="stop-color:#ff9b49"/></linearGradient><path d="M911.6 791.9C923.3 941 768 892.9 677.4 809l-38.7 49.3c64.6 71.1 163.7 146.7 251.3 97.9 40.7-24.1 47.9-78.5 37.8-120.5-5.9-26.3-16.2-43.8-16.2-43.8z" style="fill:url(#SVGID_12_)"/><path class="st5" d="M677.4 336.7c14-.5 41.4-6.9 41.4-9.2 0-4.5 13.7-17.4 9.8-20.5-15.5.5-46.2 7.9-59.4 12.4-.4 1.2-.6 2.4-.6 3.7-.1 5.4 3.3 10.4 8.8 13.6z"/></g></switch></svg>