<svg width="70" height="70" fill="none" xmlns="http://www.w3.org/2000/svg"><path d="M35.001 10.208a27.708 27.708 0 1 0 0 55.416 27.708 27.708 0 0 0 0-55.416Z" fill="#DD9F05"/><path d="M34.999 13.125a24.792 24.792 0 1 0 0 49.584 24.792 24.792 0 0 0 0-49.584Z" fill="#01579B"/><path d="M49.582 46.667c1.337 4.254-3.16 7.357-6.684 7.357-1.927 0-4.313-.735-4.983-2.982-2.486 1.32-4.614 2.784-5.833 3.672v2.161h18.834c2.914-2.447 5.27-5.533 6.812-9.07-1.247-.468-3.788-1.138-8.146-1.138Zm3.738-25.418c-5.772 1.696-9.875 4.776-11.743 6.397-1.286 3.904-4.366 8.203-9.495 11.729v10.208s4.078-7.45 13.733-9.722c6.294-1.482 11.732-1.903 13.972-2.022-.02-6.394-2.471-12.207-6.467-16.59Z" fill="#0277BD"/><path d="M50.922 18.948a24.87 24.87 0 0 0-4.505-3.023c-1.623.751-3.654 1.784-5.585 3.033.917 1.148 1.396 2.684 1.437 4.434a34.923 34.923 0 0 1 8.653-4.444Z" fill="#0091EA"/><path d="M35 16.042a21.875 21.875 0 1 0 0 43.75 21.875 21.875 0 0 0 0-43.75Z" fill="#0277BD"/><path d="M43.103 17.61c-.754.418-1.519.861-2.271 1.348.917 1.148 1.396 2.684 1.437 4.434a35.425 35.425 0 0 1 5.547-3.177 21.785 21.785 0 0 0-4.713-2.604Z" fill="#00B0FF"/><path d="M56.874 37.917c0-6.11-2.51-11.63-6.55-15.597-4.192 1.72-7.224 4.004-8.748 5.326-1.285 3.904-4.365 8.203-9.494 11.729v10.208s4.078-7.45 13.733-9.722a82.997 82.997 0 0 1 11.051-1.8c0-.048.008-.095.008-.144Z" fill="#0091EA"/><path d="M57.566 53.958h-9.44v2.917h7.044a27.68 27.68 0 0 0 2.396-2.917ZM32.085 10.364V65.47c.96.1 1.93.156 2.916.156V10.208c-.985 0-1.957.056-2.916.156ZM16.043 58.085a27.852 27.852 0 0 0 2.917 2.396v-45.13c-1.029.733-2 1.535-2.917 2.397v40.337Z" fill="#B3831D"/><path d="M16.043 53.875A24.99 24.99 0 0 0 18.96 56.8V19.033a24.99 24.99 0 0 0-2.917 2.924v31.918Z" fill="#01579B"/><path d="M14.582 4.375h17.5v52.5h29.167l-7.292 8.75H14.582l4.375-5.833V10.208l-4.375-5.833Z" fill="#FFC107"/><path d="M34.999 53.958V13.125c-.99 0-1.959.074-2.917.187v43.563h18.875a24.99 24.99 0 0 0 2.924-2.917H35Z" fill="#01579B"/><path d="M34.999 37.034a24.932 24.932 0 0 1-2.917 2.341v10.208s.928-1.675 2.917-3.676v-8.873Z" fill="#0277BD"/><path d="M32.085 56.875v-52.5h-2.917v55.417H58.82l2.431-2.917H32.085Z" fill="#E8A30A"/><path d="M49.582 46.667c1.337 4.254-3.16 7.357-6.684 7.357-1.927 0-4.313-.735-4.983-2.982-2.486 1.32-4.614 2.784-5.833 3.672v2.161h13.799a21.933 21.933 0 0 0 8.968-9.81c-1.34-.228-3.072-.398-5.267-.398Z" fill="#0091EA"/><path d="M53.008 54.906c.285-.3.533-.634.803-.948H43.763c-.291.04-.582.066-.864.066-.305 0-.622-.026-.94-.066H35V52.74a53.162 53.162 0 0 0-2.917 1.975v2.161h18.834a25.536 25.536 0 0 0 2.068-1.944l.024-.025Z" fill="#0277BD"/></svg>