<svg width="70" height="70" fill="none" xmlns="http://www.w3.org/2000/svg"><g clip-path="url(#a)"><path d="M65.778 34.553c-1.178-.311-2.206-.566-2.206-1.572 0-.794.576-1.275 1.507-1.275.932 0 1.577.524 1.796 1.43l2.316-1.147c-.603-1.6-2.11-2.55-4.043-2.55-2.48 0-4.22 1.573-4.22 3.811 0 2.748 1.932 3.258 3.63 3.712 1.193.311 2.22.595 2.22 1.629 0 .85-.657 1.402-1.685 1.402s-1.864-.58-2.096-1.43L60.68 39.71c.644 1.572 2.288 2.536 4.303 2.536 2.7 0 4.44-1.559 4.44-3.967.027-2.777-2.015-3.3-3.646-3.726Zm.549-10.639h1.343V22.03h1.37l.343-1.233H67.67v-1.19h1.946v-1.26h-3.289v5.567Zm-3.385.17c1.549 0 2.823-1.303 2.823-2.89 0-1.6-1.26-2.89-2.823-2.89-1.548 0-2.823 1.304-2.823 2.89.014 1.587 1.275 2.89 2.823 2.89Zm0-4.448c.836 0 1.508.694 1.508 1.558 0 .85-.672 1.559-1.508 1.559s-1.507-.695-1.507-1.559.685-1.558 1.507-1.558ZM37.769 29.51l.575 1.232v11.15h2.508v-8.146l5.632 8.146h2.617V29.51h-2.507v8.26l-5.591-8.26h-3.234Zm18.952.51c-.74-.312-1.809-.51-2.37-.51h-4.084v12.382h4.07c.835 0 1.63-.156 2.37-.468a6.229 6.229 0 0 0 1.96-1.303c.562-.553 1-1.204 1.316-1.955.315-.751.48-1.558.48-2.437 0-.864-.165-1.686-.48-2.437a5.929 5.929 0 0 0-1.316-1.955 6.132 6.132 0 0 0-1.946-1.317Zm.822 7.154a3.5 3.5 0 0 1-.753 1.162 3.373 3.373 0 0 1-1.124.779 3.342 3.342 0 0 1-1.398.283h-1.425v-7.38h1.439c.493 0 .96.099 1.398.297a3.57 3.57 0 0 1 1.123.78c.316.325.562.722.754 1.175.178.453.274.935.274 1.445a3.69 3.69 0 0 1-.288 1.46ZM9.224 29.51v12.382h7.126v-2.395l-4.523-.028v-2.706h3.495l.63-2.337h-4.125v-2.508h4.523V29.51H9.224Zm27.558 4.916h-4.138v-2.508h4.536V29.51h-7.126v12.382h7.126v-2.395l-4.536-.028v-2.706h3.508l.63-2.337Zm5.851-8.118c.411.454.918.794 1.507 1.035.59.24 1.275.368 2.028.368.754 0 1.44-.113 2.029-.354a4.165 4.165 0 0 0 1.52-1.02c.412-.44.74-.978.96-1.615.233-.638.343-1.346.343-2.111l.04-7.693h-2.617l-.04 7.537c0 .836-.193 1.488-.576 1.97-.384.48-.932.722-1.659.707-.726 0-1.274-.24-1.644-.736-.37-.482-.562-1.148-.562-1.983l.041-7.523h-2.617l-.041 7.65c0 .78.11 1.488.329 2.125.233.652.548 1.19.959 1.643Zm-12.58-.552a6.37 6.37 0 0 0 1.973 1.388c.768.34 1.576.51 2.467.51.863 0 1.658-.142 2.384-.453a5.927 5.927 0 0 0 1.892-1.275c.534-.538.945-1.19 1.247-1.941a6.413 6.413 0 0 0 .424-1.7c.028-.227.055-1.26.028-1.728H34.52l-1.055 2.238H37.7a2.954 2.954 0 0 1-1.11 1.728c-.576.44-1.261.652-2.07.652-.52 0-1-.113-1.439-.312a3.738 3.738 0 0 1-1.164-.85 3.958 3.958 0 0 1-.781-1.246 4.088 4.088 0 0 1-.274-1.53c0-.539.096-1.049.287-1.53.192-.482.453-.893.795-1.247a3.59 3.59 0 0 1 1.165-.822 3.451 3.451 0 0 1 1.439-.297c.699 0 1.315.17 1.85.482.534.325.96.779 1.247 1.388l2.343-1.148a5.44 5.44 0 0 0-2.165-2.351c-.96-.567-2.042-.864-3.261-.864a5.93 5.93 0 0 0-2.44.495 6.476 6.476 0 0 0-2.014 1.36 6.505 6.505 0 0 0-1.357 2.026 6.07 6.07 0 0 0-.507 2.48c0 .878.15 1.713.48 2.493a6.473 6.473 0 0 0 1.329 2.054ZM.385 14.918l.589 1.275v9.874l-.59 1.276H7.69l.658-2.423H3.564V14.918H.384Zm0 14.55.589 1.289v9.86l-.59 1.289H7.69l.658-2.437H3.564V29.467H.384Zm8.839-14.521v12.396h7.126v-2.395l-4.523-.028V22.2h3.495l.63-2.323h-4.125v-2.508h4.523v-2.422H9.224Zm42.974 0v12.396h7.126v-2.395l-4.536-.028V22.2h3.508l.63-2.323h-4.138v-2.508h4.536v-2.422h-7.126ZM19.83 27.343l.905-2.423h4.796l.932 2.422h2.7l-4.81-12.424h-3.687l.768 1.615-4.248 10.81h2.644Zm3.344-8.954 1.494 4.165h-3.056l1.562-4.165Zm-1.425 21.094c-.028-.014-.069-.028-.096-.042a3.738 3.738 0 0 1-1.165-.85 3.958 3.958 0 0 1-.781-1.247 4.088 4.088 0 0 1-.274-1.53c0-.538.096-1.048.288-1.53.192-.481.452-.892.794-1.246a3.591 3.591 0 0 1 1.165-.822 3.452 3.452 0 0 1 1.44-.298c.698 0 1.315.17 1.85.482.534.326.958.78 1.246 1.388l2.343-1.147a5.44 5.44 0 0 0-2.165-2.352c-.959-.567-2.041-.864-3.261-.864-.863 0-1.672.156-2.44.496a6.476 6.476 0 0 0-2.014 1.36 6.505 6.505 0 0 0-1.356 2.026 6.07 6.07 0 0 0-.508 2.479c0 .878.151 1.714.48 2.493.329.78.767 1.46 1.33 2.04a6.187 6.187 0 0 0 1.877 1.332l1.247-2.168Z" fill="#C89B3C"/><path d="M29.04 35.148h-5.962l-1.055 2.239h4.234a2.954 2.954 0 0 1-1.11 1.728c-.575.44-1.26.652-2.07.652-.355 0-.698-.057-1.027-.156l-.575 2.437a6.412 6.412 0 0 0 1.575.198c.864 0 1.659-.142 2.385-.454a5.93 5.93 0 0 0 1.891-1.275c.534-.538.946-1.19 1.247-1.94.22-.539.356-1.105.425-1.7a16.26 16.26 0 0 0 .041-1.729Z" fill="#C89B3C"/><path d="M17.445 48.932c1.289-3.003 4.687-10.114 4.81-10.355.11-.213.11-.326-.054-.085-.823 1.232-2.18 3.258-3.399 5.086-.603.892-1.069 1.274-1.316 1.43a.772.772 0 0 0-.274.326c-.342.836-3.44 8.09-4.042 9.761-.26-1.346-.576-3.414-.59-4.25 0-.198.042-.425-.095-.142-.069.156-.26.524-.26.524l-.275.057c-.767.879-1.918 2.48-3.878 4.944 0 0 1.754-5.213 1.987-5.836.548-1.375-.205-.213.452-1.955.11-.27.946-2.848 1.179-3.57.082-.255.055-.199-.178.127-.357.524-1.179 1.714-1.384 1.955-.179.184-1.151 2.848-1.22 3.046-.082.24-.137.24-.096 0 .096-.453.493-2.267.548-2.493.041-.17-.192.085-.342.566-.11.355-.521 1.644-.864 2.876A3229.684 3229.684 0 0 0 5.208 61.57c.397-.354 1.11-1.516 1.48-1.629.274-.085.288-.425.671-.907.96-1.246 1.59-2.167 4.29-5.355.41 2.253.945 6.021.945 6.021s.398-.524.603-1.105c.192-.566.37-.397.439-.623.562-1.913 2.521-6.035 3.81-9.038ZM30.3 51.837c.343-.468.96-1.559.96-2.508 0-1.02-.81-1.827-2.66-1.827-1.15 0-2.329.41-3.96 1.02-.424.156-.37.184.014.127.398-.056 1.137-.198 1.384-.24.26-.057.206.269.713.141-.192.354-.74 1.488-1.357 2.918-.836 1.941-1.22 3.103-1.288 3.33-.069.311.754.24.315.495-.562.326-1.33.765-2.165 1.19-.452.227-.932.454.411.015 3.837-1.261 5.975-2.423 7.633-4.661Zm-3.878-.085c.644-1.601 1.11-2.48 1.274-2.919.055-.17-.096-.184-.397-.368.233-.028.699-.085.945-.085.946 0 1.782.255 1.782 1.105 0 1.572-2.343 4.307-4.783 5.355-.013 0 .357-1.048 1.179-3.088Z" fill="#32C8FF"/><path d="m38.468 53.848-.11-.269s-1.288-1.02-2-1.657c2.164-1.02 8.372-3.91 8.016-6.786-.206-1.601-2.617-2.083-4.235-2.083-4.152 0-10.14 1.587-11.689 2.168-.04.014-.04.028.014.028 3.494-.623 13.484-1.813 13.635.368.11 1.672-5.262 4.817-6.742 5.568l-.123-.113c.575-1.644 1.247-3.273 1.343-3.528.027-.07 0-.099-.055-.141-.069-.043-.274-.17-.343-.227-.068-.043-.068-.071-.027-.156.137-.227.342-.51.438-.638.082-.113.041-.099-.055-.084-.534.099-1.89.396-3.81 1.204-.136.056-.123.085.028.042.576-.141 2.522-.694 2.22.128-.096.269-.493 1.303-1.082 2.918-.411 0-.425.198-.63.27-.152.056-.878-.1-.576.17.219.197.342.31.78.722-.657 1.799-1.671 4.675-1.671 4.675-.082.24.22.255.452.623.274.41.439 1.176.617.68.22-.61 1.343-4.037 1.754-5.03 0 0 1.685 1.39 2.206 1.8 1.083.85 2 1.615 2.878 2.196.603.41.767.425-.11-.312-1.466-1.232-1.274-1.232.781.184.275.199.549.369.809.369.192.014.301.028.904.425.453.297.768.51 1.549 1.062 1.014.723 1.206.68.233-.113-.973-.794-5.4-4.463-5.4-4.463Zm24.776-9.562c-4.002-.255-13.005.453-16.294 1.289-.123.028-.123.1-.096.184.027.114.411.298.438.453.055.34.521.255.412.539l-.891 2.309c-.356.142-.932.397-.946.44-.04.098.466.325.48.708-.384.977-.932 2.677-1.014 2.904-.069.212.247.283.343.495.095.227.246.638.301.723.11.17.15.043.22-.113.081-.227.342-.992.465-1.36.247-.723.946-2.862.946-2.862 1.041-.425 1.576-.467 1.59-.567 0-.155.3-.325.3-.325s.165-.114.165-.185c0-.07.274-.127.411-.212.137-.085.083-.142-.027-.17a7.835 7.835 0 0 0-1.973.212c.205-.58.685-1.912.89-2.337 1.056-.284 2.207-.496 3.687-.723-.439 1.204-1.426 4.052-1.549 4.392-.15.41-.301.553-.26.708.04.156-.343 1.12-.576 1.87-.082.284-.068.312.014.397.041.042.069.057.164-.113.302-.624.439-.411.137.467-.013.043-.013.057.014.085.137.255.507.68.603.368.617-1.997 1.466-4.859 2.7-8.344 1.754-.226 2.247-.269 2.919-.34.287-.028.383-.34.822-.382 1.905-.17 4.083-.34 5.605-.453.11-.029.164-.057 0-.057Zm-44.619 6.686c-.302.114-.22.213-.48.482-.096.114-.315.057-.37.184-.466 1.134-1.562 3.684-1.864 4.789a.274.274 0 0 0 .124.311s.164-.51.246-.439c.137.114 0 .737.11.808.192.113.356.198.466-.057.137-.312.603-1.686 1.178-3.074.466-1.148 1.097-2.451 1.494-3.046.288-.425-.603-.057-.904.042Zm3.124 1.248a86.228 86.228 0 0 1 1.37-2.622c.137-.255-.918.17-1.082.255-.178.085-.411.17-.603.553-.206.397-.96 1.969-1.521 3.372-.22.566-.795 1.671-.864 1.855 0 .071.014.241.096.425.028.057.343-.056.384.014.027.057-.863.553-1.083.709-.11.085-.096.085 0 .042.439-.156 2.494-.793 3.632-1.19a5.18 5.18 0 0 0 .41-.651c-.15.028-.52.099-.643.127-.055.014-.096-.042 0-.099.178-.1 1.781-.935 1.123-.737-.657.199-1.63.482-2.63.907-.014.014.74-1.6 1.41-2.96Z" fill="#32C8FF"/><path d="M44.401 48.408c-.164.17-.315.61-.534.78-.124.084-.521.24-.576.368-.37 1.006-1.356 3.839-1.398 4.207-.013.156.055.199.165.241.246.114.37-.17.575-.07.11.056-.013.354.041.453.083.155.165.042.26-.27.248-.835.919-2.918 1.248-3.768.315-.807.575-1.459.795-2.011.068-.185-.411-.1-.576.07Zm20.83-4.108h-.247v-.142h.658v.142h-.246v.595h-.151V44.3h-.014Zm.576-.156h.164l.247.397.246-.397h.165v.737h-.15v-.496l-.248.397h-.013l-.247-.397v.496h-.15v-.737h-.014Z" fill="#32C8FF"/></g><defs><clipPath id="a"><path fill="#fff" d="M0 0h70v70H0z"/></clipPath></defs></svg>